<?xml version="1.0" encoding="UTF-8"?>
<!DOCTYPE svg PUBLIC "-//W3C//DTD SVG 1.1//EN" "http://www.w3.org/Graphics/SVG/1.1/DTD/svg11.dtd">
<!-- Creator: CorelDRAW 2020 (64-Bit) -->
<svg xmlns="http://www.w3.org/2000/svg" xml:space="preserve" width="1659.37mm" height="361.223mm" version="1.1" style="shape-rendering:geometricPrecision; text-rendering:geometricPrecision; image-rendering:optimizeQuality; fill-rule:evenodd; clip-rule:evenodd"
viewBox="0 0 7169.09 1560.62"
 xmlns:xlink="http://www.w3.org/1999/xlink"
 xmlns:xodm="http://www.corel.com/coreldraw/odm/2003">
 <defs>
  <style type="text/css">
   <![CDATA[
    .fil2 {fill:#00A859}
    .fil0 {fill:#FEFEFE}
    .fil1 {fill:#FF0009}
    .fil3 {fill:#FEFEFE;fill-rule:nonzero}
   ]]>
  </style>
 </defs>
 <g id="Capa_x0020_1">
  <metadata id="CorelCorpID_0Corel-Layer"/>
  <path class="fil0" d="M2134 1242.91c38.54,-43.13 96.39,-40.73 149.03,-42.49l379.65 -1.84 0 -7.24 0 -99.59 -360.46 0 0 0.32c-82.24,0.89 -153.64,4.43 -184.73,14.56 -147.5,48.1 -160.9,137.04 -159.7,268.63 0.35,38.73 -0.42,81.15 0,127.31l704.9 6.17 -1.84 -104.31 -264.49 -1.78 -232.97 0c-9.64,-1.33 -38.55,-1.03 -38.55,-25.7 -1.84,-19.07 22.03,-28.6 38.55,-28.6l495.56 0 -1.76 -102.63 -523.17 -2.8z"/>
  <path class="fil0" d="M2928.85 1242.91c23.86,-26.36 51.4,-34.77 100.96,-41.5l427.71 -2.8 -1.84 -107.12 -479.11 0.56c-137.68,21.31 -240.47,104.31 -222.12,259.1l523.17 7.29c-11.01,17.95 -62.41,45.43 -132.17,45.43l-392.83 -0.56 1.84 104.31 479.11 -0.56c229.46,-30.84 222.12,-203.02 223.95,-260.22l-528.67 -3.93z"/>
  <path class="fil0" d="M1166.6 1185.7l537.85 2.8c-1.84,99.83 12.85,190.12 -95.46,204.7l-306.56 1.68 -1.84 -148.06 -135.84 0 1.84 251.81c115.65,17.39 440.56,15.14 545.2,-15.7 69.76,-20.75 130.33,-67.3 150.53,-134.6l7.34 -257.98 -704.9 -1.12 1.84 96.46z"/>
  <path class="fil0" d="M4467.14 1504.81l3.67 -218.72 -137.68 1.12 -1.84 107.12c0,11.22 1.84,-2.24 0,7.29l-3.67 5.61 -392.83 -1.12c-1.84,-51.03 -3.67,-121.14 22.03,-162.08 25.7,-41.5 84.44,-43.74 143.18,-44.87l370.81 2.8 0 -110.48 -416.7 0c-220.28,0 -260.67,111.04 -273.52,150.86 -22.03,67.86 -14.69,157.03 -14.69,263.03l701.23 -0.56z"/>
  <path class="fil0" d="M4703.94 1258.05c187.24,28.04 249.65,101.51 363.46,206.38 18.36,17.39 47.73,42.06 49.56,39.26 31.21,2.8 113.81,3.36 148.69,2.24l1.84 -404.35 -141.35 0.56 -5.51 217.6c-33.04,-20.19 -145.02,-113.85 -225.79,-154.23 -69.76,-35.89 -236.8,-84.68 -332.26,-64.49l0 405.47 139.51 -1.12 1.84 -247.32z"/>
  <path class="fil1" d="M1118.16 458.57l-194.22 1.15 -397.87 862.98 -171.59 0.58 -105.6 237.35 367.7 -1.15 254.56 -534.03 5183.62 0 0 -80.65c-1.89,-19.01 -2409.85,-9.22 -2636.12,-9.79l-2198.65 -1.15c-98.05,0 -211.19,3.46 -309.24,-5.76l207.42 -469.51z"/>
  <polygon class="fil0" points="137.65,1293.32 492.15,1293.32 1008.82,192.41 816.48,191.84 386.56,1138.35 203.65,1139.5 "/>
  <polygon class="fil0" points="3543.8,1199.72 3687.82,1199.72 3687.82,1507.61 3543.8,1507.61 "/>
  <polygon class="fil0" points="3686.98,1151.49 3542.17,1151.49 3542.17,1049.98 3686.98,1049.98 "/>
  <path class="fil0" d="M5529.99 1242.91c23.86,-26.36 51.4,-34.77 100.96,-41.5l427.71 -2.8 -1.84 -107.12 -479.11 0.56c-137.68,21.31 -240.47,104.31 -222.12,259.1l523.17 7.29c-11.01,17.95 -62.41,45.43 -132.17,45.43l-392.83 -0.56 1.84 104.31 479.11 -0.56c229.46,-30.84 222.12,-203.02 223.95,-260.22l-528.67 -3.93z"/>
  <polygon class="fil2" points="367.7,1101.48 -0,1101.48 495.39,0 863.09,0 "/>
  <path class="fil1" d="M4654.15 509.31l-199.16 0 0 -60.16 -56.58 0 0 60.16 -210.52 0c-51.71,0 -94.02,36.47 -94.02,81.04l0 50.87 -33.45 0 0 48.77 33.45 0 0 50.87c0,44.57 42.31,81.04 94.02,81.04l210.52 0 0 56.12 56.58 0 0 -56.12 199.16 0c51.71,0 94.02,-36.47 94.02,-81.04l0 -50.87 40.01 0 0 -48.77 -40.01 0 0 -50.87c0,-44.57 -42.31,-81.04 -94.02,-81.04zm-393.35 180.68l62.04 0 0 -48.77 -62.04 0 0 -62.44 137.61 0 0 47.96 56.58 0 0 -47.96 133.92 0 0 62.44 -63.15 0 0 48.77 63.15 0 0 62.44 -133.92 0 0 -52 -56.58 0 0 52 -137.61 0 0 -62.44z"/>
  <path class="fil3" d="M6108.34 1496.35c-1.68,-27.12 -3.7,-48.82 -5.92,-65.09 14.8,6.34 28.06,10.72 39.63,13.14 11.57,2.48 21.73,3.72 30.41,3.72 11.57,0 20.72,-1.63 27.52,-4.9 6.8,-3.27 10.23,-8.04 10.23,-14.44 0,-2.16 -0.34,-4.25 -1.01,-6.21 -0.67,-2.03 -1.88,-4.25 -3.77,-6.73 -1.88,-2.48 -4.51,-5.16 -7.94,-8.1l-37.41 -31.43c-8.75,-7.12 -14.87,-12.29 -18.3,-15.49 -7,-6.53 -12.51,-12.61 -16.42,-18.23 -3.9,-5.62 -6.73,-11.31 -8.54,-17.12 -1.82,-5.82 -2.69,-11.96 -2.69,-18.49 0,-7.78 1.41,-15.42 4.24,-22.87 2.83,-7.45 7.07,-14.44 12.78,-20.98 5.65,-6.47 13.12,-12.09 22.54,-16.79 9.35,-4.77 19.31,-7.97 30.01,-9.67 10.7,-1.76 21.67,-2.61 33.04,-2.61 22.27,0 46.49,2.48 72.74,7.45 0.34,8.82 0.81,16.86 1.35,24.18 0.54,7.32 1.82,20.19 3.77,38.56 -12.18,-4.7 -23.28,-7.97 -33.37,-9.8 -10.03,-1.83 -18.71,-2.74 -25.97,-2.74 -10.29,0 -18.91,1.83 -25.7,5.55 -6.8,3.72 -10.23,8.3 -10.23,13.79 0,2.55 0.54,5.03 1.61,7.45 1.01,2.42 3.03,5.29 5.92,8.56 2.89,3.2 6.73,6.8 11.51,10.72 4.78,3.86 12.25,9.67 22.47,17.32l14.26 10.91c4.24,3.33 8.81,7.32 13.73,12.02 4.84,4.77 9.08,9.41 12.65,13.98 3.63,4.64 6.33,8.82 8.28,12.68 1.88,3.79 3.36,7.65 4.24,11.57 0.94,3.92 1.41,8.1 1.41,12.55 0,11.5 -2.83,22.41 -8.48,32.8 -5.65,10.46 -13.73,19.02 -24.09,25.68 -10.43,6.73 -21.87,11.37 -34.32,14.05 -12.45,2.68 -25.57,4.05 -39.36,4.05 -21.33,0 -48.31,-3.01 -80.81,-9.02z"/>
  <path class="fil3" d="M6333.61 1500.27c1.08,-17.12 1.95,-40.25 2.76,-69.4l40.71 0.59c4.37,0 15.81,-0.2 34.38,-0.59 -1.08,13.92 -2.22,37.05 -3.57,69.4l-34.38 -0.39c-2.49,0 -15.81,0.13 -39.9,0.39z"/>
  <path class="fil3" d="M6452.71 1500.27c2.56,-22.48 4.58,-42.74 6.06,-60.71 1.48,-18.04 2.76,-38.95 3.83,-62.67 1.08,-23.79 1.88,-48.82 2.49,-75.22 0.54,-26.4 0.81,-47.38 0.81,-62.93 16.42,0.39 29.67,0.59 39.77,0.59 10.5,0 23.35,-0.33 38.42,-0.85 15.07,-0.59 29.81,-0.91 44.14,-0.91 16.82,0 31.76,0.65 44.95,1.96 9.82,0.85 18.77,2.74 26.85,5.55 8.07,2.81 14.87,6.21 20.39,10.19 5.52,4.05 10.16,8.56 13.79,13.53 3.7,4.97 6.53,10.78 8.61,17.51 2.02,6.67 3.03,13.85 3.03,21.5 0,8.56 -1.14,16.6 -3.36,24.05 -2.22,7.45 -5.72,14.51 -10.56,21.04 -4.78,6.6 -10.83,12.29 -18.1,17.06 -7.33,4.77 -17.56,9.67 -30.68,14.64l10.23 24.37c2.89,6.73 5.99,13.66 9.29,20.72l26.38 56.2c1.21,2.42 3.3,7.19 6.32,14.38 -21.73,-0.26 -36.33,-0.39 -43.8,-0.39 -9.49,0 -24.96,0.13 -46.56,0.39 -2.09,-6.67 -5.92,-19.02 -11.44,-37.05 -2.22,-7.51 -4.1,-13.4 -5.65,-17.45 -3.16,-9.08 -7.87,-21.83 -14,-38.23l-20.32 -54.3c7.13,1.31 14.06,1.96 20.93,1.96 9.55,0 18.23,-1.37 26.04,-4.18 7.81,-2.81 13.73,-7.12 17.76,-13 3.97,-5.82 5.99,-11.96 5.99,-18.49 0,-5.42 -1.48,-10.26 -4.51,-14.38 -3.03,-4.12 -7.81,-7.19 -14.27,-9.21 -6.53,-2.03 -16.55,-3.07 -30.08,-3.07 -4.58,0 -9.35,0.07 -14.26,0.26 -4.91,0.2 -10.63,0.39 -17.22,0.52 -1.75,26.14 -3.23,58.09 -4.58,95.73 -1.35,37.64 -2.22,74.63 -2.56,110.9 -22,-0.26 -36.27,-0.39 -42.86,-0.39 -7.6,0 -21.4,0.13 -41.25,0.39z"/>
  <path class="fil3" d="M6735.58 1500.27c1.08,-17.12 1.95,-40.25 2.76,-69.4l40.71 0.59c4.37,0 15.81,-0.2 34.38,-0.59 -1.08,13.92 -2.22,37.05 -3.57,69.4l-34.38 -0.39c-2.49,0 -15.81,0.13 -39.9,0.39z"/>
  <path class="fil3" d="M6853.06 1500.27c3.23,-30.13 5.58,-54.76 7,-73.78 2.76,-34.7 4.78,-69.27 6.19,-103.51 1.35,-34.31 2.02,-62.41 2.02,-84.23 17.9,0.26 33.71,0.39 47.5,0.39 9.35,0 22.74,-0.13 40.24,-0.39l-4.71 69.47 -5.92 108.54 -0.81 26.66c22.61,0.39 37.41,0.59 44.27,0.59 34.58,0 60.83,-0.46 78.59,-1.37l-4.44 57.64c-34.58,-0.26 -67.49,-0.39 -98.77,-0.39 -42.32,0 -79.33,0.13 -111.16,0.39z"/>
  <path class="fil3" d="M7091.25 1500.27c1.08,-17.12 1.95,-40.25 2.76,-69.4l40.71 0.59c4.37,0 15.81,-0.2 34.38,-0.59 -1.08,13.92 -2.22,37.05 -3.57,69.4l-34.38 -0.39c-2.49,0 -15.81,0.13 -39.9,0.39z"/>
  <path class="fil0" d="M4009.62 496.49c-72.94,-7.83 -165.61,54.21 -165.61,84.32l-1.97 87.94c-126.18,-21.08 -161.66,-152.99 -431.76,-172.26l-1.97 349.34 163.63 0.6 -1.97 -182.5c72.95,-3.01 242.49,195.15 435.7,186.12l3.94 -353.56z"/>
  <path class="fil0" d="M5021 848.24c102.52,3.01 276.01,21.68 295.72,-75.89l-337.13 -0.6c-1.08,-168.28 34.6,-273.68 -167.67,-273.68l-3.03 259.52c-0.89,76.35 80.05,94.03 212.09,90.65z"/>
  <path class="fil0" d="M2107.14 571.17l333.18 3.61 0 60.83 -333.18 -4.82 0 -59.63zm-163.63 278.87c94.63,7.83 157.72,-9.03 159.69,-46.98l1.97 -90.95 333.18 0 1.97 137.33 167.58 0.6 1.97 -352.96 -518.5 -1.81c-94.63,1.81 -145.89,9.64 -153.78,103.6l5.91 251.17z"/>
  <path class="fil0" d="M1168.71 498.9l-3.94 351.15c55.2,6.02 143.92,-0.6 163.63,-58.42l7.89 -217.44c84.77,0 238.55,-2.41 311.5,0.6 25.63,1.2 41.4,59.63 -9.86,60.83l-216.86 2.41c7.89,21.08 157.72,210.21 236.58,210.21l173.49 0c0,-28.91 -96.6,-98.78 -128.15,-128.9 31.54,-4.22 136.03,14.46 130.12,-120.46 -3.94,-95.77 -55.2,-100.59 -149.83,-103l-514.56 3.01z"/>
  <path class="fil0" d="M5893.25 592.49l0 11.44 -1.97 172.26 -331.21 -0.6 0 -134.32 -165.61 0 -1.97 208.4 587.5 0c63.09,-27.1 80.83,-108.42 78.86,-176.48 -3.94,-189.13 -11.83,-170.46 -240.52,-170.46l-427.81 -1.2c7.89,59.63 11.83,60.83 179.41,71.07l270.09 -0.6c47.32,0 53.23,3.61 53.23,20.48z"/>
  <path class="fil0" d="M3173.71 629l-343.04 4.82c-1.97,-138.53 1.97,-138.53 -155.75,-137.93 11.83,247.55 -53.23,219.24 500.76,215.03l0 63.85c-57.17,1.2 -346.98,-6.02 -345.01,72.88l419.93 0c78.86,-14.46 92.66,-59.03 92.66,-138.53 0,-70.47 0,-142.15 0,-212.62l-169.55 0 0 132.51z"/>
 </g>
</svg>
