<?xml version="1.0" encoding="UTF-8"?>
<!DOCTYPE svg PUBLIC "-//W3C//DTD SVG 1.1//EN" "http://www.w3.org/Graphics/SVG/1.1/DTD/svg11.dtd">
<!-- Creator: CorelDRAW 2020 (64-Bit) -->
<svg xmlns="http://www.w3.org/2000/svg" xml:space="preserve" width="1659.37mm" height="361.223mm" version="1.1" style="shape-rendering:geometricPrecision; text-rendering:geometricPrecision; image-rendering:optimizeQuality; fill-rule:evenodd; clip-rule:evenodd"
viewBox="0 0 7171.63 1561.17"
 xmlns:xlink="http://www.w3.org/1999/xlink"
 xmlns:xodm="http://www.corel.com/coreldraw/odm/2003">
 <defs>
  <style type="text/css">
   <![CDATA[
    .fil0 {fill:#FEFEFE}
    .fil1 {fill:#FEFEFE;fill-rule:nonzero}
   ]]>
  </style>
 </defs>
 <g id="Capa_x0020_1">
  <metadata id="CorelCorpID_0Corel-Layer"/>
  <path class="fil0" d="M2134.75 1243.34c38.56,-43.15 96.43,-40.75 149.08,-42.51l379.78 -1.85 0 -7.24 0 -99.62 -360.59 0 0 0.32c-82.27,0.89 -153.69,4.43 -184.8,14.56 -147.55,48.11 -160.95,137.09 -159.76,268.73 0.35,38.74 -0.42,81.18 0,127.35l705.15 6.17 -1.84 -104.35 -264.59 -1.78 -233.06 0c-9.64,-1.33 -38.56,-1.03 -38.56,-25.71 -1.84,-19.07 22.04,-28.61 38.56,-28.61l495.73 0 -1.76 -102.67 -523.35 -2.8z"/>
  <path class="fil0" d="M2929.88 1243.34c23.87,-26.37 51.42,-34.78 101,-41.52l427.86 -2.8 -1.84 -107.16 -479.28 0.56c-137.72,21.32 -240.56,104.35 -222.2,259.19l523.35 7.29c-11.02,17.95 -62.44,45.44 -132.22,45.44l-392.97 -0.56 1.84 104.35 479.28 -0.56c229.54,-30.86 222.2,-203.09 224.03,-260.31l-528.86 -3.93z"/>
  <path class="fil0" d="M1167.01 1186.12l538.04 2.8c-1.84,99.86 12.85,190.19 -95.49,204.77l-306.67 1.68 -1.84 -148.11 -135.89 0 1.84 251.9c115.69,17.39 440.72,15.15 545.39,-15.71 69.78,-20.76 130.38,-67.32 150.58,-134.65l7.35 -258.07 -705.15 -1.12 1.84 96.5z"/>
  <path class="fil0" d="M4468.72 1505.34l3.67 -218.8 -137.72 1.12 -1.84 107.15c0,11.22 1.84,-2.24 0,7.29l-3.67 5.61 -392.97 -1.12c-1.84,-51.05 -3.67,-121.18 22.04,-162.14 25.71,-41.52 84.47,-43.76 143.23,-44.88l370.94 2.8 0 -110.52 -416.85 0c-220.36,0 -260.76,111.08 -273.61,150.92 -22.04,67.88 -14.69,157.09 -14.69,263.12l701.48 -0.56z"/>
  <path class="fil0" d="M4705.61 1258.49c187.31,28.05 249.74,101.55 363.59,206.46 18.36,17.39 47.74,42.08 49.58,39.27 31.22,2.8 113.85,3.37 148.74,2.24l1.84 -404.5 -141.4 0.56 -5.51 217.68c-33.05,-20.2 -145.07,-113.89 -225.87,-154.28 -69.78,-35.91 -236.89,-84.71 -332.37,-64.52l0 405.62 139.56 -1.12 1.84 -247.41z"/>
  <path class="fil0" d="M1118.56 458.73l-194.29 1.15 -398.01 863.28 -171.65 0.58 -105.63 237.43 367.83 -1.15 254.65 -534.22 5185.45 0 0 -80.68c-1.89,-19.02 -2410.7,-9.22 -2637.06,-9.8l-2199.43 -1.15c-98.09,0 -211.27,3.46 -309.35,-5.76l207.49 -469.68z"/>
  <polygon class="fil0" points="137.7,1293.77 492.33,1293.77 1009.17,192.48 816.77,191.91 386.69,1138.75 203.72,1139.9 "/>
  <polygon class="fil0" points="2663.62,1509.27 2730.53,1509.27 2730.53,1080.25 2663.62,1080.25 "/>
  <polygon class="fil0" points="3545.05,1200.15 3689.12,1200.15 3689.12,1508.15 3545.05,1508.15 "/>
  <polygon class="fil0" points="3688.28,1151.9 3543.42,1151.9 3543.42,1050.35 3688.28,1050.35 "/>
  <path class="fil0" d="M5531.94 1243.34c23.87,-26.37 51.42,-34.78 101,-41.52l427.86 -2.8 -1.84 -107.16 -479.28 0.56c-137.72,21.32 -240.56,104.35 -222.2,259.19l523.35 7.29c-11.02,17.95 -62.43,45.44 -132.22,45.44l-392.97 -0.56 1.84 104.35 479.28 -0.56c229.54,-30.86 222.2,-203.09 224.03,-260.31l-528.86 -3.93z"/>
  <polygon class="fil0" points="367.83,1101.87 -0,1101.87 495.56,0 863.39,0 "/>
  <polygon class="fil0" points="4063.3,612.12 4029.96,612.12 4029.96,709.25 4063.3,709.25 "/>
  <polygon class="fil0" points="4798.88,612.12 4759.5,612.12 4759.5,730.18 4798.88,730.18 "/>
  <path class="fil0" d="M4655.8 509.49l-199.23 0 0 -60.18 -56.6 0 0 60.18 -210.6 0c-51.73,0 -94.05,36.48 -94.05,81.07l0 50.88 -33.46 0 0 48.79 33.46 0 0 50.88c0,44.59 42.32,81.07 94.05,81.07l210.6 0 0 56.14 56.6 0 0 -56.14 199.23 0c51.73,0 94.05,-36.48 94.05,-81.07l0 -50.88 40.03 0 0 -48.79 -40.03 0 0 -50.88c0,-44.59 -42.32,-81.07 -94.05,-81.07zm-393.49 180.74l62.06 0 0 -48.79 -62.06 0 0 -62.47 137.66 0 0 47.98 56.6 0 0 -47.98 133.97 0 0 62.47 -63.17 0 0 48.79 63.17 0 0 62.47 -133.97 0 0 -52.01 -56.6 0 0 52.01 -137.66 0 0 -62.47z"/>
  <path class="fil1" d="M6110.5 1496.88c-1.68,-27.13 -3.7,-48.83 -5.92,-65.11 14.81,6.34 28.07,10.72 39.64,13.14 11.58,2.48 21.74,3.73 30.42,3.73 11.58,0 20.73,-1.63 27.53,-4.9 6.8,-3.27 10.23,-8.04 10.23,-14.45 0,-2.16 -0.34,-4.25 -1.01,-6.21 -0.67,-2.03 -1.88,-4.25 -3.77,-6.73 -1.88,-2.48 -4.51,-5.16 -7.94,-8.11l-37.42 -31.44c-8.75,-7.13 -14.88,-12.29 -18.31,-15.49 -7,-6.54 -12.52,-12.62 -16.42,-18.24 -3.9,-5.62 -6.73,-11.31 -8.55,-17.13 -1.82,-5.82 -2.69,-11.96 -2.69,-18.5 0,-7.78 1.41,-15.43 4.24,-22.88 2.83,-7.45 7.07,-14.45 12.79,-20.98 5.65,-6.47 13.13,-12.09 22.55,-16.8 9.36,-4.77 19.32,-7.98 30.02,-9.68 10.7,-1.77 21.67,-2.61 33.05,-2.61 22.28,0 46.51,2.48 72.76,7.45 0.34,8.82 0.81,16.87 1.35,24.19 0.54,7.32 1.82,20.2 3.77,38.57 -12.18,-4.71 -23.29,-7.98 -33.39,-9.81 -10.03,-1.83 -18.71,-2.75 -25.98,-2.75 -10.3,0 -18.91,1.83 -25.71,5.56 -6.8,3.73 -10.23,8.3 -10.23,13.79 0,2.55 0.54,5.03 1.62,7.45 1.01,2.42 3.03,5.29 5.92,8.56 2.89,3.2 6.73,6.8 11.51,10.72 4.78,3.86 12.25,9.68 22.48,17.32l14.27 10.92c4.24,3.33 8.82,7.32 13.73,12.03 4.85,4.77 9.09,9.41 12.65,13.99 3.63,4.64 6.33,8.82 8.28,12.68 1.88,3.79 3.37,7.65 4.24,11.57 0.94,3.92 1.41,8.11 1.41,12.55 0,11.51 -2.83,22.42 -8.48,32.82 -5.65,10.46 -13.73,19.02 -24.1,25.69 -10.43,6.73 -21.88,11.37 -34.33,14.05 -12.45,2.68 -25.58,4.05 -39.38,4.05 -21.34,0 -48.33,-3.01 -80.84,-9.02z"/>
  <path class="fil1" d="M6335.86 1500.8c1.08,-17.13 1.95,-40.27 2.76,-69.42l40.72 0.59c4.38,0 15.82,-0.2 34.4,-0.59 -1.08,13.92 -2.22,37.07 -3.57,69.42l-34.39 -0.39c-2.49,0 -15.82,0.13 -39.91,0.39z"/>
  <path class="fil1" d="M6454.99 1500.8c2.56,-22.49 4.58,-42.75 6.06,-60.73 1.48,-18.04 2.76,-38.96 3.84,-62.69 1.08,-23.8 1.88,-48.83 2.49,-75.24 0.54,-26.41 0.81,-47.39 0.81,-62.95 16.42,0.39 29.68,0.59 39.78,0.59 10.5,0 23.36,-0.33 38.43,-0.85 15.08,-0.59 29.82,-0.91 44.15,-0.91 16.83,0 31.77,0.65 44.96,1.96 9.83,0.85 18.78,2.75 26.86,5.56 8.08,2.81 14.88,6.21 20.4,10.2 5.52,4.05 10.16,8.56 13.8,13.53 3.7,4.97 6.53,10.79 8.62,17.52 2.02,6.67 3.03,13.86 3.03,21.51 0,8.56 -1.14,16.6 -3.37,24.06 -2.22,7.45 -5.72,14.51 -10.57,21.05 -4.78,6.6 -10.84,12.29 -18.11,17.06 -7.34,4.77 -17.57,9.68 -30.69,14.64l10.23 24.38c2.89,6.73 5.99,13.66 9.29,20.72l26.39 56.22c1.21,2.42 3.3,7.19 6.33,14.38 -21.74,-0.26 -36.35,-0.39 -43.82,-0.39 -9.49,0 -24.97,0.13 -46.58,0.39 -2.09,-6.67 -5.92,-19.02 -11.44,-37.07 -2.22,-7.52 -4.11,-13.4 -5.65,-17.45 -3.16,-9.09 -7.87,-21.83 -14,-38.24l-20.33 -54.32c7.13,1.31 14.07,1.96 20.93,1.96 9.56,0 18.24,-1.37 26.05,-4.18 7.81,-2.81 13.73,-7.13 17.77,-13.01 3.97,-5.82 5.99,-11.96 5.99,-18.5 0,-5.43 -1.48,-10.26 -4.51,-14.38 -3.03,-4.12 -7.81,-7.19 -14.27,-9.22 -6.53,-2.03 -16.56,-3.07 -30.09,-3.07 -4.58,0 -9.36,0.07 -14.27,0.26 -4.91,0.2 -10.63,0.39 -17.23,0.52 -1.75,26.15 -3.23,58.12 -4.58,95.77 -1.35,37.65 -2.22,74.65 -2.56,110.93 -22.01,-0.26 -36.28,-0.39 -42.88,-0.39 -7.61,0 -21.4,0.13 -41.26,0.39z"/>
  <path class="fil1" d="M6737.96 1500.8c1.08,-17.13 1.95,-40.27 2.76,-69.42l40.72 0.59c4.38,0 15.82,-0.2 34.4,-0.59 -1.08,13.92 -2.22,37.07 -3.57,69.42l-34.39 -0.39c-2.49,0 -15.82,0.13 -39.91,0.39z"/>
  <path class="fil1" d="M6855.48 1500.8c3.23,-30.14 5.59,-54.78 7,-73.8 2.76,-34.71 4.78,-69.29 6.19,-103.55 1.35,-34.32 2.02,-62.43 2.02,-84.26 17.9,0.26 33.72,0.39 47.52,0.39 9.36,0 22.75,-0.13 40.25,-0.39l-4.71 69.49 -5.92 108.58 -0.81 26.67c22.62,0.39 37.42,0.59 44.29,0.59 34.6,0 60.85,-0.46 78.62,-1.37l-4.44 57.66c-34.6,-0.26 -67.51,-0.39 -98.81,-0.39 -42.34,0 -79.36,0.13 -111.19,0.39z"/>
  <path class="fil1" d="M7093.75 1500.8c1.08,-17.13 1.95,-40.27 2.76,-69.42l40.72 0.59c4.38,0 15.82,-0.2 34.4,-0.59 -1.08,13.92 -2.22,37.07 -3.57,69.42l-34.39 -0.39c-2.49,0 -15.82,0.13 -39.91,0.39z"/>
  <path class="fil0" d="M4011.04 496.66c-72.97,-7.83 -165.66,54.23 -165.66,84.35l-1.97 87.97c-126.22,-21.09 -161.72,-153.04 -431.91,-172.32l-1.97 349.47 163.69 0.6 -1.97 -182.57c72.97,-3.01 242.58,195.22 435.85,186.18l3.94 -353.69z"/>
  <path class="fil0" d="M5022.78 848.54c102.55,3.01 276.11,21.69 295.83,-75.92l-337.24 -0.6c-1.08,-168.34 34.61,-273.77 -167.73,-273.77l-3.03 259.61c-0.89,76.38 80.08,94.07 212.17,90.68z"/>
  <path class="fil0" d="M2107.88 571.38l333.3 3.62 0 60.86 -333.3 -4.82 0 -59.65zm-163.69 278.97c94.67,7.83 157.78,-9.04 159.75,-47l1.97 -90.98 333.3 0 1.97 137.38 167.64 0.6 1.97 -353.08 -518.69 -1.81c-94.66,1.81 -145.94,9.64 -153.83,103.64l5.92 251.26z"/>
  <path class="fil0" d="M1169.12 499.07l-3.94 351.28c55.22,6.03 143.97,-0.6 163.69,-58.45l7.89 -217.51c84.8,0 238.63,-2.41 311.61,0.6 25.64,1.2 41.42,59.65 -9.86,60.86l-216.94 2.41c7.89,21.09 157.77,210.28 236.66,210.28l173.55 0c0,-28.92 -96.64,-98.81 -128.19,-128.94 31.56,-4.22 136.08,14.46 130.16,-120.51 -3.94,-95.8 -55.22,-100.62 -149.89,-103.03l-514.74 3.01z"/>
  <path class="fil0" d="M5895.34 592.7l0 11.45 -1.97 172.32 -331.33 -0.6 0 -134.36 -165.66 0 -1.97 208.48 587.71 0c63.11,-27.11 80.86,-108.46 78.89,-176.54 -3.94,-189.19 -11.83,-170.52 -240.61,-170.52l-427.96 -1.2c7.89,59.65 11.83,60.86 179.47,71.1l270.19 -0.6c47.33,0 53.25,3.62 53.25,20.49z"/>
  <path class="fil0" d="M3174.84 629.22l-343.16 4.82c-1.97,-138.58 1.97,-138.58 -155.8,-137.98 11.83,247.64 -53.25,219.32 500.94,215.1l0 63.87c-57.19,1.2 -347.11,-6.03 -345.13,72.91l420.08 0c78.89,-14.46 92.69,-59.05 92.69,-138.58 0,-70.5 0,-142.2 0,-212.69l-169.61 0 0 132.56z"/>
 </g>
</svg>
