<?xml version="1.0" encoding="UTF-8"?>
<!DOCTYPE svg PUBLIC "-//W3C//DTD SVG 1.1//EN" "http://www.w3.org/Graphics/SVG/1.1/DTD/svg11.dtd">
<!-- Creator: CorelDRAW 2020 (64-Bit) -->
<svg xmlns="http://www.w3.org/2000/svg" xml:space="preserve" width="739.307mm" height="734.373mm" version="1.1" style="shape-rendering:geometricPrecision; text-rendering:geometricPrecision; image-rendering:optimizeQuality; fill-rule:evenodd; clip-rule:evenodd"
viewBox="0 0 1333.51 1324.61"
 xmlns:xlink="http://www.w3.org/1999/xlink"
 xmlns:xodm="http://www.corel.com/coreldraw/odm/2003">
 <defs>
  <style type="text/css">
   <![CDATA[
    .fil1 {fill:black}
    .fil2 {fill:black}
    .fil3 {fill:#01A54F}
    .fil0 {fill:#FEFEFE}
    .fil4 {fill:#FF0009}
   ]]>
  </style>
 </defs>
 <g id="Capa_x0020_1">
  <metadata id="CorelCorpID_0Corel-Layer"/>
  <path class="fil0" d="M0.26 678.32c2.74,95.82 27.23,196.57 64.54,268.8 52.83,102.28 99.29,160.77 183.97,230.85 118.25,97.86 273.95,148.97 434.18,146.56 135.55,-2.04 273.97,-50.97 374.48,-125.5 161.25,-119.58 279.45,-301.78 276,-553.46 -4.89,-357.59 -314.72,-656.23 -683.27,-645.27 -152.77,4.54 -312.42,63.66 -420.05,161.98l-81.85 83.9c-12.18,15.23 -23.62,30.5 -35.26,47.77 -73.59,109.21 -116.82,242.14 -112.75,384.38z"/>
  <path class="fil1" d="M559.81 505.33l341.76 0.01 -0 101.51 -281.4 0.01c1.63,8.36 214.04,273.49 242.25,310.48 17.15,22.48 12.19,21.07 32.09,20.89 67.96,-0.64 136.05,0.22 204.03,-0.16l-43.03 -54.43c-14.92,-18.31 -28.2,-35.51 -43.01,-53.04l-86.06 -107.05c71.72,-3.29 136.9,-26.56 152.47,-86.24 5.59,-21.42 7.75,-140.67 -2.65,-169.5 -29.29,-81.21 -141.68,-77.02 -223.15,-77.02 -80.04,0 -160.09,-0.11 -240.12,0.01 -6.04,1.62 -11.43,19.01 -15.12,27.44 -9.01,20.57 -33.68,71.92 -38.06,87.12z"/>
  <path class="fil2" d="M103.08 686.54c-4.39,-154.73 47.94,-299.45 151.91,-408.22 80.12,-83.81 211.92,-168.04 386.33,-175.85 318.42,-14.26 576.93,233.35 589.08,533.96 16.88,417.33 -403.05,696.68 -777.52,544.19 -53.9,-21.95 -131.51,-67.73 -171.58,-109.96 -27.07,-28.52 -39.39,-35.65 -66.57,-73.2 -64.2,-88.69 -108.28,-191.9 -111.66,-310.92zm511.16 -615.94c-311.83,24.69 -571.42,299.2 -543,644.3 11.26,136.74 72.53,264.13 163.29,356.62 6.36,6.48 12.45,12.14 18.43,18.74 9.37,10.35 11.76,10.93 20.63,18.7 104.34,91.43 255.5,159.66 446.4,145.13 81.18,-6.18 167.79,-34.92 228.9,-68.01 210.21,-113.82 333.16,-332.54 313.46,-576.06 -25.27,-312.4 -302.71,-566.77 -648.11,-539.42z"/>
  <path class="fil3" d="M193.78 777.95l139.86 0.19 190.2 -435.8 -140.05 -0.74c-6.39,8.51 -188.75,427.17 -190.01,436.34z"/>
  <path class="fil4" d="M392.42 876.05l-65.64 0.79c-6.32,11.78 -37.52,81.86 -39.28,93.63l139.72 -0.38c28.01,-57.67 68.53,-154.81 96.45,-217.84 11.73,-26.49 92.95,-205.16 94.77,-217.44l-72.25 -0.19 -153.77 341.43z"/>
  <path class="fil2" d="M339.57 792.48l-69.67 0.48 -24.4 60.84 135.74 0.29c50.86,-107.31 99,-222.96 149.07,-326.6l49.4 -108.93 -73.99 -0.56 -123.88 281.93c-6.59,15.04 -36.12,85.53 -42.28,92.54z"/>
 </g>
</svg>
