<?xml version="1.0" encoding="UTF-8"?>
<!DOCTYPE svg PUBLIC "-//W3C//DTD SVG 1.1//EN" "http://www.w3.org/Graphics/SVG/1.1/DTD/svg11.dtd">
<!-- Creator: CorelDRAW 2020 (64-Bit) -->
<svg xmlns="http://www.w3.org/2000/svg" xml:space="preserve" width="1659.37mm" height="361.223mm" version="1.1" style="shape-rendering:geometricPrecision; text-rendering:geometricPrecision; image-rendering:optimizeQuality; fill-rule:evenodd; clip-rule:evenodd"
viewBox="0 0 6554.56 1426.85"
 xmlns:xlink="http://www.w3.org/1999/xlink"
 xmlns:xodm="http://www.corel.com/coreldraw/odm/2003">
 <defs>
  <style type="text/css">
   <![CDATA[
    .fil0 {fill:black}
    .fil1 {fill:black;fill-rule:nonzero}
   ]]>
  </style>
 </defs>
 <g id="Capa_x0020_1">
  <metadata id="CorelCorpID_0Corel-Layer"/>
  <path class="fil0" d="M1951.07 1136.36c35.24,-39.43 88.13,-37.24 136.25,-38.85l347.1 -1.69 0 -6.62 0 -91.05 -329.57 0 0 0.29c-75.19,0.82 -140.47,4.05 -168.9,13.31 -134.86,43.97 -147.11,125.29 -146.01,245.61 0.32,35.41 -0.38,74.19 0,116.4l644.48 5.64 -1.68 -95.37 -241.82 -1.63 -213 0c-8.81,-1.21 -35.24,-0.94 -35.24,-23.5 -1.68,-17.43 20.14,-26.15 35.24,-26.15l453.08 0 -1.61 -93.83 -478.32 -2.56z"/>
  <path class="fil0" d="M2677.79 1136.36c21.82,-24.1 46.99,-31.79 92.31,-37.94l391.05 -2.56 -1.68 -97.94 -438.04 0.51c-125.87,19.48 -219.86,95.37 -203.08,236.89l478.32 6.67c-10.07,16.41 -57.06,41.53 -120.84,41.53l-359.16 -0.51 1.68 95.37 438.04 -0.51c209.79,-28.2 203.08,-185.62 204.76,-237.92l-483.36 -3.59z"/>
  <path class="fil0" d="M1066.6 1084.06l491.75 2.56c-1.68,91.27 11.75,173.82 -87.27,187.15l-280.28 1.54 -1.68 -135.37 -124.2 0 1.68 230.22c105.73,15.9 402.8,13.84 498.46,-14.36 63.78,-18.97 119.16,-61.53 137.62,-123.06l6.71 -235.86 -644.48 -1.03 1.68 88.19z"/>
  <path class="fil0" d="M4084.22 1375.82l3.36 -199.97 -125.87 1.03 -1.68 97.93c0,10.26 1.68,-2.05 0,6.67l-3.36 5.13 -359.16 -1.03c-1.68,-46.66 -3.36,-110.75 20.14,-148.18 23.5,-37.94 77.2,-39.99 130.91,-41.02l339.02 2.56 0 -101.01 -380.98 0c-201.4,0 -238.32,101.52 -250.07,137.93 -20.14,62.04 -13.43,143.57 -13.43,240.48l641.12 -0.51z"/>
  <path class="fil0" d="M4300.72 1150.21c171.19,25.64 228.25,92.81 332.31,188.69 16.78,15.9 43.64,38.46 45.31,35.89 28.53,2.56 104.06,3.08 135.94,2.05l1.68 -369.69 -129.23 0.51 -5.04 198.95c-30.21,-18.46 -132.59,-104.09 -206.43,-141.01 -63.78,-32.82 -216.5,-77.43 -303.78,-58.97l0 370.72 127.55 -1.03 1.68 -226.12z"/>
  <path class="fil0" d="M1022.31 419.26l-177.57 1.05 -363.76 789.01 -156.88 0.53 -96.54 217 336.18 -1.05 232.74 -488.26 4739.28 0 0 -73.74c-1.72,-17.38 -2203.28,-8.43 -2410.16,-8.95l-2010.19 -1.05c-89.65,0 -193.09,3.16 -282.74,-5.27l189.64 -429.27z"/>
  <polygon class="fil0" points="125.85,1182.45 449.96,1182.45 922.34,175.92 746.49,175.39 353.42,1040.77 186.19,1041.82 "/>
  <polygon class="fil0" points="3240.02,1096.88 3371.7,1096.88 3371.7,1378.38 3240.02,1378.38 "/>
  <polygon class="fil0" points="3370.93,1052.79 3238.54,1052.79 3238.54,959.98 3370.93,959.98 "/>
  <path class="fil0" d="M5055.96 1136.36c21.82,-24.1 46.99,-31.79 92.31,-37.94l391.05 -2.56 -1.68 -97.94 -438.04 0.51c-125.87,19.48 -219.86,95.37 -203.08,236.89l478.32 6.67c-10.07,16.41 -57.06,41.53 -120.84,41.53l-359.16 -0.51 1.68 95.37 438.04 -0.51c209.79,-28.2 203.08,-185.62 204.76,-237.92l-483.36 -3.59z"/>
  <polygon class="fil0" points="336.18,1007.06 -0,1007.06 452.92,0 789.1,0 "/>
  <polygon class="fil0" points="3713.68,559.45 3683.21,559.45 3683.21,648.22 3713.68,648.22 "/>
  <polygon class="fil0" points="4385.97,559.45 4349.98,559.45 4349.98,667.35 4385.97,667.35 "/>
  <path class="fil0" d="M4255.2 465.65l-182.09 0 0 -55 -51.73 0 0 55 -192.47 0c-47.28,0 -85.96,33.34 -85.96,74.09l0 46.51 -30.58 0 0 44.59 30.58 0 0 46.51c0,40.75 38.68,74.09 85.96,74.09l192.47 0 0 51.31 51.73 0 0 -51.31 182.09 0c47.28,0 85.96,-33.34 85.96,-74.09l0 -46.51 36.58 0 0 -44.59 -36.58 0 0 -46.51c0,-40.75 -38.68,-74.09 -85.96,-74.09zm-359.64 165.19l56.72 0 0 -44.59 -56.72 0 0 -57.09 125.81 0 0 43.85 51.73 0 0 -43.85 122.44 0 0 57.09 -57.74 0 0 44.59 57.74 0 0 57.09 -122.44 0 0 -47.54 -51.73 0 0 47.54 -125.81 0 0 -57.09z"/>
  <path class="fil1" d="M5584.74 1368.09c-1.54,-24.79 -3.38,-44.63 -5.41,-59.51 13.53,5.8 25.65,9.8 36.23,12.01 10.58,2.27 19.87,3.41 27.81,3.41 10.58,0 18.95,-1.49 25.16,-4.48 6.21,-2.99 9.35,-7.35 9.35,-13.2 0,-1.97 -0.31,-3.88 -0.92,-5.68 -0.62,-1.85 -1.72,-3.88 -3.44,-6.15 -1.72,-2.27 -4.12,-4.72 -7.26,-7.41l-34.2 -28.74c-8,-6.51 -13.6,-11.23 -16.73,-14.16 -6.4,-5.97 -11.44,-11.53 -15.01,-16.67 -3.57,-5.14 -6.15,-10.34 -7.81,-15.65 -1.66,-5.32 -2.46,-10.93 -2.46,-16.91 0,-7.11 1.29,-14.1 3.88,-20.91 2.58,-6.81 6.46,-13.2 11.69,-19.18 5.17,-5.91 12,-11.05 20.61,-15.35 8.55,-4.36 17.66,-7.29 27.44,-8.84 9.78,-1.61 19.81,-2.39 30.21,-2.39 20.36,0 42.51,2.27 66.5,6.81 0.31,8.07 0.74,15.41 1.23,22.11 0.49,6.69 1.66,18.46 3.44,35.25 -11.13,-4.3 -21.29,-7.29 -30.51,-8.96 -9.17,-1.67 -17.1,-2.51 -23.75,-2.51 -9.41,0 -17.29,1.67 -23.5,5.08 -6.21,3.41 -9.35,7.59 -9.35,12.61 0,2.33 0.49,4.6 1.48,6.81 0.92,2.21 2.77,4.84 5.41,7.83 2.65,2.93 6.15,6.21 10.52,9.8 4.37,3.53 11.2,8.84 20.55,15.83l13.04 9.98c3.88,3.05 8.06,6.69 12.55,10.99 4.43,4.36 8.31,8.6 11.57,12.79 3.32,4.24 5.78,8.07 7.57,11.59 1.72,3.47 3.08,6.99 3.88,10.58 0.86,3.58 1.29,7.41 1.29,11.47 0,10.52 -2.58,20.49 -7.75,29.99 -5.17,9.56 -12.55,17.39 -22.02,23.48 -9.54,6.15 -19.99,10.4 -31.37,12.85 -11.38,2.45 -23.38,3.7 -35.99,3.7 -19.5,0 -44.17,-2.75 -73.88,-8.24z"/>
  <path class="fil1" d="M5790.7 1371.67c0.98,-15.65 1.78,-36.8 2.52,-63.45l37.22 0.54c4,0 14.46,-0.18 31.44,-0.54 -0.98,12.73 -2.03,33.88 -3.26,63.45l-31.44 -0.36c-2.28,0 -14.46,0.12 -36.48,0.36z"/>
  <path class="fil1" d="M5899.59 1371.67c2.34,-20.55 4.18,-39.07 5.54,-55.5 1.35,-16.49 2.52,-35.61 3.51,-57.3 0.98,-21.75 1.72,-44.63 2.28,-68.77 0.49,-24.14 0.74,-43.32 0.74,-57.54 15.01,0.36 27.13,0.54 36.36,0.54 9.6,0 21.35,-0.3 35.13,-0.78 13.78,-0.54 27.25,-0.84 40.36,-0.84 15.38,0 29.04,0.6 41.09,1.79 8.98,0.78 17.16,2.51 24.55,5.08 7.38,2.57 13.6,5.68 18.64,9.32 5.04,3.7 9.29,7.83 12.61,12.37 3.38,4.54 5.97,9.86 7.87,16.01 1.85,6.09 2.77,12.67 2.77,19.66 0,7.83 -1.05,15.18 -3.08,21.99 -2.03,6.81 -5.23,13.26 -9.66,19.24 -4.37,6.03 -9.9,11.23 -16.55,15.59 -6.71,4.36 -16.06,8.84 -28.05,13.38l9.35 22.29c2.65,6.15 5.48,12.49 8.49,18.94l24.12 51.38c1.11,2.21 3.01,6.57 5.78,13.14 -19.87,-0.24 -33.22,-0.36 -40.05,-0.36 -8.67,0 -22.82,0.12 -42.57,0.36 -1.91,-6.09 -5.41,-17.39 -10.46,-33.88 -2.03,-6.87 -3.75,-12.25 -5.17,-15.95 -2.89,-8.3 -7.2,-19.96 -12.8,-34.95l-18.58 -49.65c6.52,1.19 12.86,1.79 19.13,1.79 8.74,0 16.67,-1.25 23.81,-3.82 7.14,-2.57 12.55,-6.51 16.24,-11.89 3.63,-5.32 5.48,-10.93 5.48,-16.91 0,-4.96 -1.35,-9.38 -4.12,-13.14 -2.77,-3.76 -7.14,-6.57 -13.04,-8.42 -5.97,-1.85 -15.13,-2.81 -27.5,-2.81 -4.18,0 -8.55,0.06 -13.04,0.24 -4.49,0.18 -9.72,0.36 -15.75,0.48 -1.6,23.9 -2.95,53.11 -4.18,87.53 -1.23,34.41 -2.03,68.23 -2.34,101.39 -20.12,-0.24 -33.16,-0.36 -39.19,-0.36 -6.95,0 -19.56,0.12 -37.71,0.36z"/>
  <path class="fil1" d="M6158.21 1371.67c0.98,-15.65 1.78,-36.8 2.52,-63.45l37.22 0.54c4,0 14.46,-0.18 31.44,-0.54 -0.98,12.73 -2.03,33.88 -3.26,63.45l-31.44 -0.36c-2.28,0 -14.46,0.12 -36.48,0.36z"/>
  <path class="fil1" d="M6265.62 1371.67c2.95,-27.54 5.11,-50.07 6.4,-67.45 2.52,-31.73 4.37,-63.33 5.66,-94.64 1.23,-31.37 1.85,-57.06 1.85,-77.01 16.36,0.24 30.82,0.36 43.43,0.36 8.55,0 20.79,-0.12 36.79,-0.36l-4.31 63.51 -5.41 99.24 -0.74 24.38c20.67,0.36 34.2,0.54 40.48,0.54 31.62,0 55.61,-0.42 71.85,-1.25l-4.06 52.7c-31.62,-0.24 -61.7,-0.36 -90.31,-0.36 -38.69,0 -72.53,0.12 -101.63,0.36z"/>
  <path class="fil1" d="M6483.39 1371.67c0.98,-15.65 1.78,-36.8 2.52,-63.45l37.22 0.54c4,0 14.46,-0.18 31.44,-0.54 -0.98,12.73 -2.03,33.88 -3.26,63.45l-31.44 -0.36c-2.28,0 -14.46,0.12 -36.48,0.36z"/>
  <path class="fil0" d="M3665.92 453.93c-66.69,-7.16 -151.41,49.56 -151.41,77.1l-1.8 80.4c-115.36,-19.27 -147.81,-139.87 -394.75,-157.5l-1.8 319.4 149.61 0.55 -1.8 -166.86c66.69,-2.75 221.71,178.42 398.35,170.16l3.6 -323.25z"/>
  <path class="fil0" d="M4590.6 775.53c93.73,2.75 252.35,19.82 270.37,-69.39l-308.23 -0.55c-0.99,-153.86 31.63,-250.22 -153.29,-250.22l-2.77 237.28c-0.81,69.81 73.19,85.97 193.91,82.88z"/>
  <path class="fil0" d="M1926.51 522.21l304.62 3.3 0 55.62 -304.62 -4.41 0 -54.52zm-149.61 254.97c86.52,7.16 144.2,-8.26 146,-42.95l1.8 -83.15 304.62 0 1.8 125.56 153.21 0.55 1.8 -322.7 -474.06 -1.65c-86.52,1.65 -133.38,8.81 -140.59,94.72l5.41 229.64z"/>
  <path class="fil0" d="M1068.52 456.13l-3.61 321.05c50.47,5.51 131.58,-0.55 149.61,-53.42l7.21 -198.8c77.51,0 218.1,-2.2 284.79,0.55 23.43,1.1 37.85,54.52 -9.01,55.62l-198.27 2.2c7.21,19.27 144.2,192.19 216.3,192.19l158.62 0c0,-26.43 -88.32,-90.31 -117.16,-117.85 28.84,-3.85 124.37,13.22 118.96,-110.14 -3.6,-87.56 -50.47,-91.96 -136.99,-94.17l-470.45 2.75z"/>
  <path class="fil0" d="M5388.09 541.71l0 10.46 -1.8 157.5 -302.82 -0.55 0 -122.8 -151.41 0 -1.8 190.54 537.14 0c57.68,-24.78 73.9,-99.12 72.1,-161.35 -3.61,-172.92 -10.82,-155.84 -219.9,-155.84l-391.14 -1.1c7.21,54.52 10.81,55.62 164.03,64.98l246.94 -0.55c43.26,0 48.67,3.3 48.67,18.72z"/>
  <path class="fil0" d="M2901.66 575.08l-313.63 4.41c-1.8,-126.66 1.8,-126.66 -142.4,-126.11 10.81,226.33 -48.67,200.45 457.83,196.6l0 58.37c-52.27,1.1 -317.24,-5.51 -315.44,66.63l383.93 0c72.1,-13.22 84.72,-53.97 84.72,-126.66 0,-64.43 0,-129.96 0,-194.39l-155.01 0 0 121.15z"/>
 </g>
</svg>
