<?xml version="1.0" encoding="UTF-8"?>
<!DOCTYPE svg PUBLIC "-//W3C//DTD SVG 1.1//EN" "http://www.w3.org/Graphics/SVG/1.1/DTD/svg11.dtd">
<!-- Creator: CorelDRAW 2020 (64-Bit) -->
<svg xmlns="http://www.w3.org/2000/svg" xml:space="preserve" width="1659.37mm" height="361.223mm" version="1.1" style="shape-rendering:geometricPrecision; text-rendering:geometricPrecision; image-rendering:optimizeQuality; fill-rule:evenodd; clip-rule:evenodd"
viewBox="0 0 6552.44 1426.38"
 xmlns:xlink="http://www.w3.org/1999/xlink"
 xmlns:xodm="http://www.corel.com/coreldraw/odm/2003">
 <defs>
  <style type="text/css">
   <![CDATA[
    .fil0 {fill:black}
    .fil2 {fill:#00A859}
    .fil3 {fill:#FF0009}
    .fil1 {fill:#FF0009}
    .fil4 {fill:black;fill-rule:nonzero}
   ]]>
  </style>
 </defs>
 <g id="Capa_x0020_1">
  <metadata id="CorelCorpID_0Corel-Layer"/>
  <path class="fil0" d="M1950.44 1136c35.23,-39.42 88.1,-37.23 136.21,-38.84l346.99 -1.69 0 -6.61 0 -91.02 -329.46 0 0 0.29c-75.16,0.82 -140.43,4.05 -168.84,13.31 -134.82,43.96 -147.06,125.25 -145.97,245.53 0.32,35.4 -0.38,74.17 0,116.36l644.27 5.64 -1.68 -95.34 -241.74 -1.63 -212.93 0c-8.81,-1.21 -35.23,-0.94 -35.23,-23.49 -1.68,-17.43 20.13,-26.14 35.23,-26.14l452.93 0 -1.61 -93.8 -478.17 -2.56z"/>
  <path class="fil0" d="M2676.92 1136c21.81,-24.09 46.98,-31.78 92.28,-37.93l390.92 -2.56 -1.68 -97.9 -437.9 0.51c-125.83,19.48 -219.79,95.34 -203.01,236.81l478.17 6.66c-10.07,16.4 -57.04,41.52 -120.8,41.52l-359.04 -0.51 1.68 95.34 437.9 -0.51c209.72,-28.19 203.01,-185.56 204.69,-237.84l-483.2 -3.59z"/>
  <path class="fil0" d="M1066.25 1083.71l491.59 2.56c-1.68,91.24 11.74,173.77 -87.24,187.09l-280.19 1.54 -1.68 -135.32 -124.16 0 1.68 230.15c105.7,15.89 402.67,13.84 498.3,-14.35 63.76,-18.97 119.12,-61.51 137.58,-123.02l6.71 -235.79 -644.27 -1.03 1.68 88.16z"/>
  <path class="fil0" d="M4082.9 1375.37l3.36 -199.91 -125.83 1.03 -1.68 97.9c0,10.25 1.68,-2.05 0,6.66l-3.36 5.13 -359.05 -1.03c-1.68,-46.65 -3.36,-110.72 20.13,-148.14 23.49,-37.93 77.18,-39.98 130.87,-41.01l338.91 2.56 0 -100.98 -380.86 0c-201.33,0 -238.24,101.49 -249.99,137.89 -20.13,62.02 -13.42,143.52 -13.42,240.4l640.91 -0.51z"/>
  <path class="fil0" d="M4299.33 1149.84c171.13,25.63 228.18,92.78 332.2,188.63 16.78,15.89 43.62,38.44 45.3,35.88 28.52,2.56 104.02,3.08 135.9,2.05l1.68 -369.57 -129.19 0.51 -5.03 198.88c-30.2,-18.45 -132.54,-104.05 -206.37,-140.96 -63.76,-32.81 -216.43,-77.4 -303.68,-58.95l0 370.6 127.51 -1.03 1.68 -226.05z"/>
  <path class="fil1" d="M1021.98 419.12l-177.51 1.05 -363.65 788.75 -156.83 0.53 -96.51 216.93 336.07 -1.05 232.67 -488.1 4737.75 0 0 -73.71c-1.72,-17.38 -2202.56,-8.42 -2409.38,-8.95l-2009.54 -1.05c-89.62,0 -193.03,3.16 -282.65,-5.27l189.58 -429.13z"/>
  <polygon class="fil0" points="125.81,1182.07 449.82,1182.07 922.04,175.86 746.25,175.34 353.31,1040.43 186.13,1041.49 "/>
  <polygon class="fil0" points="3238.98,1096.53 3370.61,1096.53 3370.61,1377.94 3238.98,1377.94 "/>
  <polygon class="fil0" points="3369.84,1052.45 3237.49,1052.45 3237.49,959.67 3369.84,959.67 "/>
  <path class="fil0" d="M5054.33 1136c21.81,-24.09 46.98,-31.78 92.28,-37.93l390.92 -2.56 -1.68 -97.9 -437.9 0.51c-125.83,19.48 -219.79,95.34 -203.01,236.81l478.17 6.66c-10.07,16.4 -57.04,41.52 -120.8,41.52l-359.05 -0.51 1.68 95.34 437.9 -0.51c209.72,-28.19 203.01,-185.56 204.69,-237.84l-483.2 -3.59z"/>
  <polygon class="fil2" points="336.07,1006.74 -0,1006.74 452.78,0 788.85,0 "/>
  <path class="fil3" d="M4253.83 465.5l-182.03 0 0 -54.98 -51.72 0 0 54.98 -192.41 0c-47.26,0 -85.93,33.33 -85.93,74.07l0 46.49 -30.57 0 0 44.58 30.57 0 0 46.49c0,40.74 38.67,74.07 85.93,74.07l192.41 0 0 51.3 51.72 0 0 -51.3 182.03 0c47.26,0 85.93,-33.33 85.93,-74.07l0 -46.49 36.57 0 0 -44.58 -36.57 0 0 -46.49c0,-40.74 -38.67,-74.07 -85.93,-74.07zm-359.52 165.14l56.7 0 0 -44.58 -56.7 0 0 -57.07 125.77 0 0 43.84 51.72 0 0 -43.84 122.4 0 0 57.07 -57.72 0 0 44.58 57.72 0 0 57.07 -122.4 0 0 -47.52 -51.72 0 0 47.52 -125.77 0 0 -57.07z"/>
  <path class="fil4" d="M5582.93 1367.64c-1.54,-24.79 -3.38,-44.62 -5.41,-59.49 13.53,5.79 25.64,9.8 36.22,12.01 10.58,2.27 19.86,3.4 27.8,3.4 10.58,0 18.94,-1.49 25.15,-4.48 6.21,-2.99 9.35,-7.35 9.35,-13.2 0,-1.97 -0.31,-3.88 -0.92,-5.67 -0.61,-1.85 -1.72,-3.88 -3.44,-6.15 -1.72,-2.27 -4.12,-4.72 -7.26,-7.41l-34.19 -28.73c-7.99,-6.51 -13.59,-11.23 -16.73,-14.16 -6.4,-5.97 -11.44,-11.53 -15.01,-16.66 -3.57,-5.14 -6.15,-10.33 -7.81,-15.65 -1.66,-5.32 -2.46,-10.93 -2.46,-16.9 0,-7.11 1.29,-14.1 3.87,-20.9 2.58,-6.81 6.46,-13.2 11.68,-19.17 5.17,-5.91 11.99,-11.05 20.6,-15.35 8.55,-4.36 17.65,-7.29 27.43,-8.84 9.78,-1.61 19.8,-2.39 30.2,-2.39 20.36,0 42.49,2.27 66.48,6.81 0.31,8.06 0.74,15.41 1.23,22.1 0.49,6.69 1.66,18.46 3.44,35.24 -11.13,-4.3 -21.28,-7.29 -30.5,-8.96 -9.16,-1.67 -17.1,-2.51 -23.74,-2.51 -9.41,0 -17.28,1.67 -23.49,5.08 -6.21,3.4 -9.35,7.59 -9.35,12.6 0,2.33 0.49,4.6 1.48,6.81 0.92,2.21 2.77,4.84 5.41,7.82 2.64,2.93 6.15,6.21 10.52,9.8 4.37,3.52 11.19,8.84 20.54,15.83l13.04 9.97c3.87,3.05 8.06,6.69 12.55,10.99 4.43,4.36 8.3,8.6 11.56,12.78 3.32,4.24 5.78,8.06 7.56,11.59 1.72,3.46 3.07,6.99 3.87,10.57 0.86,3.58 1.29,7.41 1.29,11.47 0,10.51 -2.58,20.49 -7.75,29.98 -5.17,9.56 -12.55,17.38 -22.02,23.47 -9.53,6.15 -19.99,10.39 -31.36,12.84 -11.38,2.45 -23.37,3.7 -35.98,3.7 -19.5,0 -44.16,-2.75 -73.86,-8.24z"/>
  <path class="fil4" d="M5788.83 1371.23c0.98,-15.65 1.78,-36.79 2.52,-63.43l37.21 0.54c4,0 14.45,-0.18 31.43,-0.54 -0.98,12.72 -2.03,33.87 -3.26,63.43l-31.43 -0.36c-2.28,0 -14.45,0.12 -36.47,0.36z"/>
  <path class="fil4" d="M5897.68 1371.23c2.34,-20.55 4.18,-39.06 5.53,-55.49 1.35,-16.48 2.52,-35.6 3.5,-57.28 0.98,-21.74 1.72,-44.62 2.28,-68.75 0.49,-24.13 0.74,-43.3 0.74,-57.52 15.01,0.36 27.12,0.54 36.34,0.54 9.59,0 21.34,-0.3 35.12,-0.78 13.78,-0.54 27.24,-0.84 40.34,-0.84 15.37,0 29.03,0.6 41.08,1.79 8.98,0.78 17.16,2.51 24.54,5.08 7.38,2.57 13.59,5.67 18.63,9.32 5.04,3.7 9.29,7.82 12.61,12.36 3.38,4.54 5.97,9.85 7.87,16.01 1.84,6.09 2.77,12.66 2.77,19.65 0,7.82 -1.05,15.17 -3.08,21.98 -2.03,6.81 -5.23,13.26 -9.66,19.23 -4.37,6.03 -9.9,11.23 -16.54,15.59 -6.7,4.36 -16.05,8.84 -28.04,13.38l9.35 22.28c2.64,6.15 5.47,12.48 8.49,18.93l24.11 51.37c1.11,2.21 3.01,6.57 5.78,13.14 -19.86,-0.24 -33.21,-0.36 -40.03,-0.36 -8.67,0 -22.82,0.12 -42.56,0.36 -1.91,-6.09 -5.41,-17.38 -10.45,-33.87 -2.03,-6.87 -3.75,-12.24 -5.17,-15.95 -2.89,-8.3 -7.2,-19.95 -12.79,-34.94l-18.57 -49.63c6.52,1.19 12.85,1.79 19.13,1.79 8.73,0 16.67,-1.25 23.8,-3.82 7.13,-2.57 12.55,-6.51 16.24,-11.89 3.63,-5.32 5.47,-10.93 5.47,-16.9 0,-4.96 -1.35,-9.38 -4.12,-13.14 -2.77,-3.76 -7.13,-6.57 -13.04,-8.42 -5.96,-1.85 -15.13,-2.81 -27.49,-2.81 -4.18,0 -8.55,0.06 -13.04,0.24 -4.49,0.18 -9.72,0.36 -15.74,0.48 -1.6,23.89 -2.95,53.1 -4.18,87.5 -1.23,34.4 -2.03,68.21 -2.34,101.36 -20.11,-0.24 -33.15,-0.36 -39.17,-0.36 -6.95,0 -19.56,0.12 -37.7,0.36z"/>
  <path class="fil4" d="M6156.22 1371.23c0.98,-15.65 1.78,-36.79 2.52,-63.43l37.21 0.54c4,0 14.45,-0.18 31.43,-0.54 -0.98,12.72 -2.03,33.87 -3.26,63.43l-31.43 -0.36c-2.28,0 -14.45,0.12 -36.47,0.36z"/>
  <path class="fil4" d="M6263.59 1371.23c2.95,-27.53 5.1,-50.05 6.4,-67.43 2.52,-31.72 4.37,-63.31 5.66,-94.61 1.23,-31.36 1.84,-57.04 1.84,-76.99 16.36,0.24 30.81,0.36 43.42,0.36 8.55,0 20.79,-0.12 36.78,-0.36l-4.3 63.49 -5.41 99.21 -0.74 24.37c20.66,0.36 34.19,0.54 40.47,0.54 31.61,0 55.59,-0.42 71.83,-1.25l-4.06 52.68c-31.61,-0.24 -61.68,-0.36 -90.28,-0.36 -38.68,0 -72.51,0.12 -101.59,0.36z"/>
  <path class="fil4" d="M6481.29 1371.23c0.98,-15.65 1.78,-36.79 2.52,-63.43l37.21 0.54c4,0 14.45,-0.18 31.43,-0.54 -0.98,12.72 -2.03,33.87 -3.26,63.43l-31.43 -0.36c-2.28,0 -14.45,0.12 -36.47,0.36z"/>
  <path class="fil0" d="M3664.74 453.78c-66.67,-7.16 -151.36,49.55 -151.36,77.07l-1.8 80.37c-115.32,-19.27 -147.76,-139.83 -394.62,-157.45l-1.8 319.3 149.56 0.55 -1.8 -166.8c66.67,-2.75 221.64,178.36 398.22,170.11l3.6 -323.15z"/>
  <path class="fil0" d="M4589.12 775.28c93.7,2.75 252.27,19.82 270.29,-69.36l-308.13 -0.55c-0.98,-153.81 31.62,-250.14 -153.24,-250.14l-2.77 237.2c-0.81,69.78 73.16,85.95 193.85,82.85z"/>
  <path class="fil0" d="M1925.89 522.04l304.52 3.3 0 55.6 -304.52 -4.4 0 -54.5zm-149.56 254.89c86.49,7.16 144.15,-8.26 145.96,-42.94l1.8 -83.13 304.52 0 1.8 125.52 153.16 0.55 1.8 -322.6 -473.9 -1.65c-86.49,1.65 -133.34,8.81 -140.55,94.69l5.41 229.56z"/>
  <path class="fil0" d="M1068.18 455.98l-3.6 320.95c50.45,5.5 131.54,-0.55 149.56,-53.4l7.21 -198.73c77.48,0 218.03,-2.2 284.7,0.55 23.42,1.1 37.84,54.5 -9.01,55.6l-198.21 2.2c7.21,19.27 144.15,192.13 216.23,192.13l158.57 0c0,-26.42 -88.29,-90.28 -117.12,-117.81 28.83,-3.85 124.33,13.21 118.93,-110.1 -3.6,-87.53 -50.45,-91.93 -136.95,-94.14l-470.3 2.75z"/>
  <path class="fil0" d="M5386.35 541.53l0 10.46 -1.8 157.45 -302.72 -0.55 0 -122.76 -151.36 0 -1.8 190.48 536.97 0c57.66,-24.77 73.88,-99.09 72.08,-161.3 -3.6,-172.86 -10.81,-155.79 -219.83,-155.79l-391.02 -1.1c7.21,54.5 10.81,55.6 163.97,64.96l246.86 -0.55c43.25,0 48.65,3.3 48.65,18.72z"/>
  <path class="fil0" d="M2900.73 574.89l-313.53 4.4c-1.8,-126.62 1.8,-126.62 -142.35,-126.07 10.81,226.26 -48.65,200.39 457.69,196.53l0 58.35c-52.26,1.1 -317.14,-5.51 -315.33,66.61l383.81 0c72.08,-13.21 84.69,-53.95 84.69,-126.62 0,-64.41 0,-129.92 0,-194.33l-154.96 0 0 121.11z"/>
 </g>
</svg>
