<?xml version="1.0" encoding="UTF-8"?>
<!DOCTYPE svg PUBLIC "-//W3C//DTD SVG 1.1//EN" "http://www.w3.org/Graphics/SVG/1.1/DTD/svg11.dtd">
<!-- Creator: CorelDRAW 2020 (64-Bit) -->
<svg xmlns="http://www.w3.org/2000/svg" xml:space="preserve" width="739.307mm" height="734.373mm" version="1.1" style="shape-rendering:geometricPrecision; text-rendering:geometricPrecision; image-rendering:optimizeQuality; fill-rule:evenodd; clip-rule:evenodd"
viewBox="0 0 1392.06 1382.76"
 xmlns:xlink="http://www.w3.org/1999/xlink"
 xmlns:xodm="http://www.corel.com/coreldraw/odm/2003">
 <defs>
  <style type="text/css">
   <![CDATA[
    .fil0 {fill:black}
    .fil2 {fill:#01A54F}
    .fil3 {fill:#FF0009}
    .fil1 {fill:white}
   ]]>
  </style>
 </defs>
 <g id="Capa_x0020_1">
  <metadata id="CorelCorpID_0Corel-Layer"/>
  <path class="fil0" d="M0.28 708.1c2.86,100.02 28.43,205.2 67.37,280.6 55.15,106.77 103.65,167.83 192.05,240.98 123.44,102.16 285.98,155.51 453.24,152.99 141.5,-2.13 286,-53.2 390.92,-131.01 168.33,-124.83 291.72,-315.03 288.12,-577.76 -5.11,-373.28 -328.54,-685.04 -713.27,-673.6 -159.48,4.74 -326.14,66.46 -438.49,169.09l-85.44 87.58c-12.71,15.9 -24.66,31.84 -36.81,49.87 -76.82,114.01 -121.95,252.77 -117.7,401.25z"/>
  <path class="fil1" d="M584.39 527.52l356.76 0.01 -0 105.96 -293.75 0.01c1.71,8.73 223.44,285.5 252.89,324.11 17.9,23.47 12.73,22 33.5,21.8 70.95,-0.67 142.02,0.23 212.99,-0.16l-44.92 -56.82c-15.58,-19.12 -29.44,-37.07 -44.9,-55.37l-89.84 -111.75c74.87,-3.43 142.91,-27.72 159.17,-90.02 5.84,-22.36 8.09,-146.84 -2.76,-176.95 -30.58,-84.77 -147.9,-80.4 -232.95,-80.4 -83.55,0 -167.11,-0.11 -250.67,0.01 -6.3,1.69 -11.93,19.85 -15.78,28.64 -9.41,21.48 -35.16,75.08 -39.73,90.94z"/>
  <path class="fil1" d="M107.61 716.68c-4.58,-161.53 50.05,-312.6 158.58,-426.14 83.63,-87.49 221.22,-175.42 403.3,-183.57 332.4,-14.89 602.25,243.6 614.95,557.4 17.62,435.65 -420.75,727.26 -811.66,568.08 -56.27,-22.91 -137.28,-70.7 -179.11,-114.79 -28.26,-29.78 -41.12,-37.22 -69.5,-76.41 -67.02,-92.58 -113.04,-200.32 -116.56,-324.57zm533.6 -642.98c-325.52,25.78 -596.51,312.34 -566.84,672.59 11.76,142.74 75.71,275.73 170.46,372.27 6.64,6.77 13,12.67 19.24,19.57 9.78,10.81 12.28,11.41 21.54,19.52 108.92,95.45 266.72,166.67 466,151.5 84.74,-6.45 175.15,-36.45 238.95,-70.99 219.44,-118.81 347.79,-347.14 327.22,-601.36 -26.38,-326.12 -316,-591.65 -676.56,-563.1z"/>
  <path class="fil2" d="M202.28 812.1l146 0.2 198.55 -454.93 -146.2 -0.77c-6.67,8.88 -197.04,445.92 -198.35,455.5z"/>
  <path class="fil3" d="M409.65 914.51l-68.52 0.83c-6.6,12.3 -39.17,85.46 -41,97.74l145.86 -0.4c29.24,-60.2 71.54,-161.61 100.68,-227.4 12.24,-27.65 97.03,-214.17 98.93,-226.99l-75.42 -0.2 -160.52 356.42z"/>
  <path class="fil1" d="M354.48 827.27l-72.73 0.5 -25.48 63.51 141.7 0.3c53.09,-112.02 103.34,-232.74 155.62,-340.94l51.57 -113.71 -77.23 -0.58 -129.32 294.31c-6.88,15.7 -37.7,89.29 -44.13,96.61z"/>
 </g>
</svg>
