<svg width="40" height="40" viewBox="0 0 1043 1232" version="1.1" xmlns="http://www.w3.org/2000/svg" xmlns:xlink="http://www.w3.org/1999/xlink"><g stroke="none" stroke-width="1" fill="none" fill-rule="evenodd"><g fill="none"><rect id="Rectangle" fill="#E5E7EF" fill-rule="nonzero" x="38.8020833" y="257.8125" width="973.282292" height="973.282292"></rect> <g id="qr-placeholder-index" transform="translate(42.000000, 258.000000)" fill="none"><path d="M108,359.666667 L357.666667,359.666667 L357.666667,110 L108,110 L108,359.666667 Z M149.611111,151.611111 L316.055556,151.611111 L316.055556,318.055556 L149.611111,318.055556 L149.611111,151.611111 Z M191.222222,193.222222 L274.444444,193.222222 L274.444444,276.444444 L191.222222,276.444444 L191.222222,193.222222 Z M607.333333,359.666667 L857,359.666667 L857,110 L607.333333,110 L607.333333,359.666667 Z M648.944444,151.611111 L815.388889,151.611111 L815.388889,318.055556 L648.944444,318.055556 L648.944444,151.611111 Z M690.555556,193.222222 L773.777778,193.222222 L773.777778,276.444444 L690.555556,276.444444 L690.555556,193.222222 Z M108,859 L357.666667,859 L357.666667,609.333333 L108,609.333333 L108,859 Z M149.611111,650.944444 L316.055556,650.944444 L316.055556,817.388889 L149.611111,817.388889 L149.611111,650.944444 Z M191.222222,692.555556 L274.444444,692.555556 L274.444444,775.777778 L191.222222,775.777778 L191.222222,692.555556 Z M815.388889,775.777778 L857,775.777778 L857,859 L773.777778,859 L773.777778,734.166667 L815.388889,734.166667 L815.388889,775.777778 Z M815.388889,650.944444 L857,650.944444 L857,692.555556 L815.388889,692.555556 L815.388889,650.944444 Z M815.388889,609.333333 L815.388889,650.944444 L773.777778,650.944444 L773.777778,609.333333 L815.388889,609.333333 Z M399.277778,692.555556 L440.888889,692.555556 L440.888889,859 L399.277778,859 L399.277778,692.555556 Z M232.833333,401.277778 L232.833333,484.5 L149.611111,484.5 L149.611111,442.888889 L108,442.888889 L108,401.277778 L232.833333,401.277778 Z M399.277778,276.444444 L440.888889,276.444444 L440.888889,318.055556 L399.277778,318.055556 L399.277778,276.444444 Z M524.111111,151.611111 L524.111111,234.833333 L482.5,234.833333 L482.5,110 L565.722222,110 L565.722222,151.611111 L524.111111,151.611111 Z M399.277778,151.611111 L440.888889,151.611111 L440.888889,193.222222 L399.277778,193.222222 L399.277778,151.611111 Z M815.388889,484.5 L857,484.5 L857,567.722222 L773.777778,567.722222 L773.777778,526.111111 L815.388889,526.111111 L815.388889,484.5 Z M773.777778,401.277778 L773.777778,442.888889 L690.555556,442.888889 L690.555556,526.111111 L607.333333,526.111111 L607.333333,484.5 L648.944444,484.5 L648.944444,401.277778 L773.777778,401.277778 Z M482.5,567.722222 L440.888889,567.722222 L440.888889,526.111111 L399.277778,526.111111 L399.277778,484.5 L482.5,484.5 L482.5,567.722222 Z M732.166667,650.944444 L773.777778,650.944444 L773.777778,692.555556 L732.166667,692.555556 L732.166667,650.944444 Z M815.388889,442.888889 L815.388889,484.5 L773.777778,484.5 L773.777778,442.888889 L815.388889,442.888889 Z M440.888889,567.722222 L440.888889,609.333333 L399.277778,609.333333 L399.277778,567.722222 L440.888889,567.722222 Z M690.555556,775.777778 L732.166667,775.777778 L732.166667,859 L648.944444,859 L648.944444,775.777778 L690.555556,775.777778 Z M565.722222,775.777778 L607.333333,775.777778 L607.333333,817.388889 L565.722222,817.388889 L565.722222,859 L482.5,859 L482.5,817.388889 L524.111111,817.388889 L524.111111,775.777778 L565.722222,775.777778 Z M565.722222,734.166667 L565.722222,692.555556 L648.944444,692.555556 L648.944444,734.166667 L565.722222,734.166667 Z M565.722222,526.111111 L607.333333,526.111111 L607.333333,650.944444 L565.722222,650.944444 L565.722222,692.555556 L524.111111,692.555556 L524.111111,734.166667 L482.5,734.166667 L482.5,650.944444 L440.888889,650.944444 L440.888889,609.333333 L565.722222,609.333333 L565.722222,567.722222 L524.111111,567.722222 L524.111111,526.111111 L565.722222,526.111111 Z M191.222222,526.111111 L191.222222,567.722222 L149.611111,567.722222 L149.611111,526.111111 L191.222222,526.111111 Z M690.555556,692.555556 L648.944444,692.555556 L648.944444,650.944444 L690.555556,650.944444 L690.555556,692.555556 Z M732.166667,609.333333 L648.944444,609.333333 L648.944444,567.722222 L732.166667,567.722222 L732.166667,609.333333 Z M316.055556,401.277778 L357.666667,401.277778 L357.666667,442.888889 L316.055556,442.888889 L316.055556,484.5 L357.666667,484.5 L357.666667,567.722222 L316.055556,567.722222 L316.055556,526.111111 L274.444444,526.111111 L274.444444,567.722222 L232.833333,567.722222 L232.833333,484.5 L274.444444,484.5 L274.444444,401.277778 L316.055556,401.277778 Z M440.888889,401.277778 L440.888889,318.055556 L565.722222,318.055556 L565.722222,442.888889 L482.5,442.888889 L482.5,401.277778 L524.111111,401.277778 L524.111111,359.666667 L482.5,359.666667 L482.5,401.277778 L440.888889,401.277778 Z M440.888889,234.833333 L482.5,234.833333 L482.5,276.444444 L440.888889,276.444444 L440.888889,234.833333 Z M399.277778,401.277778 L440.888889,401.277778 L440.888889,442.888889 L399.277778,442.888889 L399.277778,401.277778 Z M524.111111,276.444444 L524.111111,234.833333 L565.722222,234.833333 L565.722222,276.444444 L524.111111,276.444444 Z" id="Shape" fill="#000000" fill-rule="nonzero"></path> <polygon id="Path" points="0 0 967 0 967 967 0 967" fill="none"></polygon></g> <g id="Group" fill="#000000" fill-rule="nonzero"><path d="M1007.44792,0 L43.8020833,0 C17.5208333,0 0,17.5208333 0,43.8020833 L0,175.208333 C0,197.109375 17.5208333,219.010417 43.8020833,219.010417 L1007.44792,219.010417 C1029.34896,219.010417 1051.25,201.489583 1051.25,175.208333 L1051.25,43.8020833 C1051.25,17.5208333 1033.72917,0 1007.44792,0 Z" id="Path"></path></g> <g id="Group" fill="#000000" fill-rule="nonzero"><path d="M1007.44792,0 L43.8020833,0 C17.5208333,0 0,17.5208333 0,43.8020833 L0,175.208333 C0,197.109375 17.5208333,219.010417 43.8020833,219.010417 L1007.44792,219.010417 C1029.34896,219.010417 1051.25,201.489583 1051.25,175.208333 L1051.25,43.8020833 C1051.25,17.5208333 1033.72917,0 1007.44792,0 Z" id="Path"></path></g> <text id="SCAN-ME" fill="#FFFFFF" fill-rule="nonzero" font-family="ArialMT, Arial" font-size="130" font-weight="normal"><tspan x="229.125" y="155.505208" fill="#FFFFFF">SCAN ME</tspan></text></g></g></svg>