<svg width="40" height="40" viewBox="0 0 1000 1250" version="1.1" xmlns="http://www.w3.org/2000/svg" xmlns:xlink="http://www.w3.org/1999/xlink"><g stroke="none" stroke-width="1" fill="none" fill-rule="evenodd"><g transform="translate(0.000000, 0.000000)" fill="none"><rect id="Rectangle" fill="#FFFFFF" fill-rule="nonzero" x="42.1209939" y="206" width="925.833333" height="925.833333"></rect> <g id="Group" fill="#000000" fill-rule="nonzero"><path d="M54.6209939,1166.66667 L942.120994,1166.66667 C971.287661,1166.66667 996.287661,1141.66667 996.287661,1112.5 L1000.45433,58.3333333 C1000.45433,29.1666667 975.454327,4.16666667 946.287661,4.16666667 L58.7876605,0 C29.6209939,0 4.62099385,25 0.454327184,54.1666667 L0.454327184,1108.33333 C-3.71233948,1141.66667 21.2876605,1166.66667 54.6209939,1166.66667 Z M42.1209939,250 C42.1209939,225 62.9543272,208.333333 83.7876605,208.333333 L917.120994,208.333333 C942.120994,208.333333 958.787661,229.166667 958.787661,250 L958.787661,1083.33333 C958.787661,1108.33333 937.954327,1125 917.120994,1125 L83.7876605,1125 C58.7876605,1125 42.1209939,1104.16667 42.1209939,1083.33333 L42.1209939,250 Z" id="Shape"></path></g> <g id="Group" fill="#000000" fill-rule="nonzero"><path d="M54.6209939,1166.66667 L942.120994,1166.66667 C971.287661,1166.66667 996.287661,1141.66667 996.287661,1112.5 L1000.45433,58.3333333 C1000.45433,29.1666667 975.454327,4.16666667 946.287661,4.16666667 L58.7876605,0 C29.6209939,0 4.62099385,25 0.454327184,54.1666667 L0.454327184,1108.33333 C-3.71233948,1141.66667 21.2876605,1166.66667 54.6209939,1166.66667 Z M42.1209939,250 C42.1209939,225 62.9543272,208.333333 83.7876605,208.333333 L917.120994,208.333333 C942.120994,208.333333 958.787661,229.166667 958.787661,250 L958.787661,1083.33333 C958.787661,1108.33333 937.954327,1125 917.120994,1125 L83.7876605,1125 C58.7876605,1125 42.1209939,1104.16667 42.1209939,1083.33333 L42.1209939,250 Z" id="Shape"></path></g> <g id="qr-placeholder-index" transform="translate(42.000000, 218.000000)" fill="none"><path d="M101,335 L334,335 L334,102 L101,102 L101,335 Z M139.833333,140.833333 L295.166667,140.833333 L295.166667,296.166667 L139.833333,296.166667 L139.833333,140.833333 Z M178.666667,179.666667 L256.333333,179.666667 L256.333333,257.333333 L178.666667,257.333333 L178.666667,179.666667 Z M567,335 L800,335 L800,102 L567,102 L567,335 Z M605.833333,140.833333 L761.166667,140.833333 L761.166667,296.166667 L605.833333,296.166667 L605.833333,140.833333 Z M644.666667,179.666667 L722.333333,179.666667 L722.333333,257.333333 L644.666667,257.333333 L644.666667,179.666667 Z M101,801 L334,801 L334,568 L101,568 L101,801 Z M139.833333,606.833333 L295.166667,606.833333 L295.166667,762.166667 L139.833333,762.166667 L139.833333,606.833333 Z M178.666667,645.666667 L256.333333,645.666667 L256.333333,723.333333 L178.666667,723.333333 L178.666667,645.666667 Z M761.166667,723.333333 L800,723.333333 L800,801 L722.333333,801 L722.333333,684.5 L761.166667,684.5 L761.166667,723.333333 Z M761.166667,606.833333 L800,606.833333 L800,645.666667 L761.166667,645.666667 L761.166667,606.833333 Z M761.166667,568 L761.166667,606.833333 L722.333333,606.833333 L722.333333,568 L761.166667,568 Z M372.833333,645.666667 L411.666667,645.666667 L411.666667,801 L372.833333,801 L372.833333,645.666667 Z M217.5,373.833333 L217.5,451.5 L139.833333,451.5 L139.833333,412.666667 L101,412.666667 L101,373.833333 L217.5,373.833333 Z M372.833333,257.333333 L411.666667,257.333333 L411.666667,296.166667 L372.833333,296.166667 L372.833333,257.333333 Z M489.333333,140.833333 L489.333333,218.5 L450.5,218.5 L450.5,102 L528.166667,102 L528.166667,140.833333 L489.333333,140.833333 Z M372.833333,140.833333 L411.666667,140.833333 L411.666667,179.666667 L372.833333,179.666667 L372.833333,140.833333 Z M761.166667,451.5 L800,451.5 L800,529.166667 L722.333333,529.166667 L722.333333,490.333333 L761.166667,490.333333 L761.166667,451.5 Z M722.333333,373.833333 L722.333333,412.666667 L644.666667,412.666667 L644.666667,490.333333 L567,490.333333 L567,451.5 L605.833333,451.5 L605.833333,373.833333 L722.333333,373.833333 Z M450.5,529.166667 L411.666667,529.166667 L411.666667,490.333333 L372.833333,490.333333 L372.833333,451.5 L450.5,451.5 L450.5,529.166667 Z M683.5,606.833333 L722.333333,606.833333 L722.333333,645.666667 L683.5,645.666667 L683.5,606.833333 Z M761.166667,412.666667 L761.166667,451.5 L722.333333,451.5 L722.333333,412.666667 L761.166667,412.666667 Z M411.666667,529.166667 L411.666667,568 L372.833333,568 L372.833333,529.166667 L411.666667,529.166667 Z M644.666667,723.333333 L683.5,723.333333 L683.5,801 L605.833333,801 L605.833333,723.333333 L644.666667,723.333333 Z M528.166667,723.333333 L567,723.333333 L567,762.166667 L528.166667,762.166667 L528.166667,801 L450.5,801 L450.5,762.166667 L489.333333,762.166667 L489.333333,723.333333 L528.166667,723.333333 Z M528.166667,684.5 L528.166667,645.666667 L605.833333,645.666667 L605.833333,684.5 L528.166667,684.5 Z M528.166667,490.333333 L567,490.333333 L567,606.833333 L528.166667,606.833333 L528.166667,645.666667 L489.333333,645.666667 L489.333333,684.5 L450.5,684.5 L450.5,606.833333 L411.666667,606.833333 L411.666667,568 L528.166667,568 L528.166667,529.166667 L489.333333,529.166667 L489.333333,490.333333 L528.166667,490.333333 Z M178.666667,490.333333 L178.666667,529.166667 L139.833333,529.166667 L139.833333,490.333333 L178.666667,490.333333 Z M644.666667,645.666667 L605.833333,645.666667 L605.833333,606.833333 L644.666667,606.833333 L644.666667,645.666667 Z M683.5,568 L605.833333,568 L605.833333,529.166667 L683.5,529.166667 L683.5,568 Z M295.166667,373.833333 L334,373.833333 L334,412.666667 L295.166667,412.666667 L295.166667,451.5 L334,451.5 L334,529.166667 L295.166667,529.166667 L295.166667,490.333333 L256.333333,490.333333 L256.333333,529.166667 L217.5,529.166667 L217.5,451.5 L256.333333,451.5 L256.333333,373.833333 L295.166667,373.833333 Z M411.666667,373.833333 L411.666667,296.166667 L528.166667,296.166667 L528.166667,412.666667 L450.5,412.666667 L450.5,373.833333 L489.333333,373.833333 L489.333333,335 L450.5,335 L450.5,373.833333 L411.666667,373.833333 Z M411.666667,218.5 L450.5,218.5 L450.5,257.333333 L411.666667,257.333333 L411.666667,218.5 Z M372.833333,373.833333 L411.666667,373.833333 L411.666667,412.666667 L372.833333,412.666667 L372.833333,373.833333 Z M489.333333,257.333333 L489.333333,218.5 L528.166667,218.5 L528.166667,257.333333 L489.333333,257.333333 Z" id="Shape" fill="#96949B" fill-rule="nonzero"></path> <polygon id="Path" points="0 0 902 0 902 902 0 902" fill="none"></polygon></g> <text id="SCAN-ME" fill="#FFFFFF" fill-rule="nonzero" font-family="ArialMT, Arial" font-size="120" font-weight="normal"><tspan x="226.954327" y="150.320513" fill="#FFFFFF">SCAN ME</tspan></text></g></g></svg>