<svg width="40" height="40" viewBox="0 0 850 1250" version="1.1" xmlns="http://www.w3.org/2000/svg" xmlns:xlink="http://www.w3.org/1999/xlink"><g stroke="none" stroke-width="1" fill="none" fill-rule="evenodd"><g fill="none"><rect id="Rectangle" fill="#FFFFFF" fill-rule="nonzero" x="58" y="275" width="794" height="794"></rect> <g id="Group" transform="translate(13.000000, -0.000000)" fill="#000000" fill-rule="nonzero"><path d="M16.8627451,247.153153 L16.8627451,247.153153 L16.8627451,247.153153 L16.8627451,1213.2973 C16.8627451,1230.14865 33.7254902,1247 50.5882353,1247 L826.27451,1247 C843.137255,1247 860,1230.14865 860,1213.2973 L860,247.153153 L16.8627451,247.153153 Z M831.895425,1039.16667 C831.895425,1050.4009 820.653595,1061.63514 809.411765,1061.63514 L67.4509804,1061.63514 C56.2091503,1061.63514 44.9673203,1050.4009 44.9673203,1039.16667 L44.9673203,297.707207 C44.9673203,286.472973 56.2091503,275.238739 67.4509804,275.238739 L803.79085,275.238739 C820.653595,275.238739 831.895425,286.472973 831.895425,297.707207 L831.895425,1039.16667 Z" id="Shape"></path> <path d="M837.51634,0 L0,89.8738739 L16.8627451,247.153153 L854.379085,157.279279 L837.51634,0 Z M146.143791,207.833333 L39.3464052,219.067568 L134.901961,101.108108 L241.699346,89.8738739 L146.143791,207.833333 Z M354.117647,185.364865 L247.320261,196.599099 L342.875817,78.6396396 L449.673203,67.4054054 L354.117647,185.364865 Z M562.091503,162.896396 L455.294118,174.130631 L550.849673,56.1711712 L657.647059,44.9369369 L562.091503,162.896396 Z M775.686275,140.427928 L668.888889,151.662162 L764.444444,33.7027027 L815.03268,28.0855856 L820.653595,78.6396396 L775.686275,140.427928 Z" id="Shape"></path></g> <g id="Group" transform="translate(13.000000, -0.000000)" fill="#000000" fill-rule="nonzero"><path d="M16.8627451,247.153153 L16.8627451,247.153153 L16.8627451,247.153153 L16.8627451,1213.2973 C16.8627451,1230.14865 33.7254902,1247 50.5882353,1247 L826.27451,1247 C843.137255,1247 860,1230.14865 860,1213.2973 L860,247.153153 L16.8627451,247.153153 Z M831.895425,1039.16667 C831.895425,1050.4009 820.653595,1061.63514 809.411765,1061.63514 L67.4509804,1061.63514 C56.2091503,1061.63514 44.9673203,1050.4009 44.9673203,1039.16667 L44.9673203,297.707207 C44.9673203,286.472973 56.2091503,275.238739 67.4509804,275.238739 L803.79085,275.238739 C820.653595,275.238739 831.895425,286.472973 831.895425,297.707207 L831.895425,1039.16667 Z" id="Shape"></path> <path d="M837.51634,0 L0,89.8738739 L16.8627451,247.153153 L854.379085,157.279279 L837.51634,0 Z M146.143791,207.833333 L39.3464052,219.067568 L134.901961,101.108108 L241.699346,89.8738739 L146.143791,207.833333 Z M354.117647,185.364865 L247.320261,196.599099 L342.875817,78.6396396 L449.673203,67.4054054 L354.117647,185.364865 Z M562.091503,162.896396 L455.294118,174.130631 L550.849673,56.1711712 L657.647059,44.9369369 L562.091503,162.896396 Z M775.686275,140.427928 L668.888889,151.662162 L764.444444,33.7027027 L815.03268,28.0855856 L820.653595,78.6396396 L775.686275,140.427928 Z" id="Shape"></path></g> <g id="qr-placeholder-index" transform="translate(0.000000, 221.000000)" fill="none"><path d="M101,335 L334,335 L334,102 L101,102 L101,335 Z M139.833333,140.833333 L295.166667,140.833333 L295.166667,296.166667 L139.833333,296.166667 L139.833333,140.833333 Z M178.666667,179.666667 L256.333333,179.666667 L256.333333,257.333333 L178.666667,257.333333 L178.666667,179.666667 Z M567,335 L800,335 L800,102 L567,102 L567,335 Z M605.833333,140.833333 L761.166667,140.833333 L761.166667,296.166667 L605.833333,296.166667 L605.833333,140.833333 Z M644.666667,179.666667 L722.333333,179.666667 L722.333333,257.333333 L644.666667,257.333333 L644.666667,179.666667 Z M101,801 L334,801 L334,568 L101,568 L101,801 Z M139.833333,606.833333 L295.166667,606.833333 L295.166667,762.166667 L139.833333,762.166667 L139.833333,606.833333 Z M178.666667,645.666667 L256.333333,645.666667 L256.333333,723.333333 L178.666667,723.333333 L178.666667,645.666667 Z M761.166667,723.333333 L800,723.333333 L800,801 L722.333333,801 L722.333333,684.5 L761.166667,684.5 L761.166667,723.333333 Z M761.166667,606.833333 L800,606.833333 L800,645.666667 L761.166667,645.666667 L761.166667,606.833333 Z M761.166667,568 L761.166667,606.833333 L722.333333,606.833333 L722.333333,568 L761.166667,568 Z M372.833333,645.666667 L411.666667,645.666667 L411.666667,801 L372.833333,801 L372.833333,645.666667 Z M217.5,373.833333 L217.5,451.5 L139.833333,451.5 L139.833333,412.666667 L101,412.666667 L101,373.833333 L217.5,373.833333 Z M372.833333,257.333333 L411.666667,257.333333 L411.666667,296.166667 L372.833333,296.166667 L372.833333,257.333333 Z M489.333333,140.833333 L489.333333,218.5 L450.5,218.5 L450.5,102 L528.166667,102 L528.166667,140.833333 L489.333333,140.833333 Z M372.833333,140.833333 L411.666667,140.833333 L411.666667,179.666667 L372.833333,179.666667 L372.833333,140.833333 Z M761.166667,451.5 L800,451.5 L800,529.166667 L722.333333,529.166667 L722.333333,490.333333 L761.166667,490.333333 L761.166667,451.5 Z M722.333333,373.833333 L722.333333,412.666667 L644.666667,412.666667 L644.666667,490.333333 L567,490.333333 L567,451.5 L605.833333,451.5 L605.833333,373.833333 L722.333333,373.833333 Z M450.5,529.166667 L411.666667,529.166667 L411.666667,490.333333 L372.833333,490.333333 L372.833333,451.5 L450.5,451.5 L450.5,529.166667 Z M683.5,606.833333 L722.333333,606.833333 L722.333333,645.666667 L683.5,645.666667 L683.5,606.833333 Z M761.166667,412.666667 L761.166667,451.5 L722.333333,451.5 L722.333333,412.666667 L761.166667,412.666667 Z M411.666667,529.166667 L411.666667,568 L372.833333,568 L372.833333,529.166667 L411.666667,529.166667 Z M644.666667,723.333333 L683.5,723.333333 L683.5,801 L605.833333,801 L605.833333,723.333333 L644.666667,723.333333 Z M528.166667,723.333333 L567,723.333333 L567,762.166667 L528.166667,762.166667 L528.166667,801 L450.5,801 L450.5,762.166667 L489.333333,762.166667 L489.333333,723.333333 L528.166667,723.333333 Z M528.166667,684.5 L528.166667,645.666667 L605.833333,645.666667 L605.833333,684.5 L528.166667,684.5 Z M528.166667,490.333333 L567,490.333333 L567,606.833333 L528.166667,606.833333 L528.166667,645.666667 L489.333333,645.666667 L489.333333,684.5 L450.5,684.5 L450.5,606.833333 L411.666667,606.833333 L411.666667,568 L528.166667,568 L528.166667,529.166667 L489.333333,529.166667 L489.333333,490.333333 L528.166667,490.333333 Z M178.666667,490.333333 L178.666667,529.166667 L139.833333,529.166667 L139.833333,490.333333 L178.666667,490.333333 Z M644.666667,645.666667 L605.833333,645.666667 L605.833333,606.833333 L644.666667,606.833333 L644.666667,645.666667 Z M683.5,568 L605.833333,568 L605.833333,529.166667 L683.5,529.166667 L683.5,568 Z M295.166667,373.833333 L334,373.833333 L334,412.666667 L295.166667,412.666667 L295.166667,451.5 L334,451.5 L334,529.166667 L295.166667,529.166667 L295.166667,490.333333 L256.333333,490.333333 L256.333333,529.166667 L217.5,529.166667 L217.5,451.5 L256.333333,451.5 L256.333333,373.833333 L295.166667,373.833333 Z M411.666667,373.833333 L411.666667,296.166667 L528.166667,296.166667 L528.166667,412.666667 L450.5,412.666667 L450.5,373.833333 L489.333333,373.833333 L489.333333,335 L450.5,335 L450.5,373.833333 L411.666667,373.833333 Z M411.666667,218.5 L450.5,218.5 L450.5,257.333333 L411.666667,257.333333 L411.666667,218.5 Z M372.833333,373.833333 L411.666667,373.833333 L411.666667,412.666667 L372.833333,412.666667 L372.833333,373.833333 Z M489.333333,257.333333 L489.333333,218.5 L528.166667,218.5 L528.166667,257.333333 L489.333333,257.333333 Z" id="Shape" fill="#96949B" fill-rule="nonzero"></path> <polygon id="Path" points="0 0 902 0 902 902 0 902" fill="none"></polygon></g> <text id="SCAN-ME" fill="#FFFFFF" fill-rule="nonzero" font-family="ArialMT, Arial" font-size="120" font-weight="normal"><tspan x="168" y="1193" fill="#FFFFFF">SCAN ME</tspan></text></g></g></svg>