<svg width="40" height="40" viewBox="0 0 1000 1190" version="1.1" xmlns="http://www.w3.org/2000/svg" xmlns:xlink="http://www.w3.org/1999/xlink"><g stroke="none" stroke-width="1" fill="none" fill-rule="evenodd"><g fill="none"><rect id="Rectangle" fill="#FFFFFF" fill-rule="nonzero" x="41.6666667" y="41.6666667" width="925.833333" height="925.833333"></rect> <g id="Group" fill="#000000" fill-rule="nonzero"><path d="M54.1666667,1000 L941.666667,1000 C970.833333,1000 995.833333,975 995.833333,945.833333 L995.833333,58.3333333 C1000,25 975,0 945.833333,0 L54.1666667,0 C25,0 0,25 0,54.1666667 L0,941.666667 C0,975 25,1000 54.1666667,1000 Z M41.6666667,83.3333333 C41.6666667,58.3333333 62.5,41.6666667 83.3333333,41.6666667 L916.666667,41.6666667 C941.666667,41.6666667 958.333333,62.5 958.333333,83.3333333 L958.333333,916.666667 C958.333333,941.666667 937.5,958.333333 916.666667,958.333333 L83.3333333,958.333333 C58.3333333,958.333333 41.6666667,937.5 41.6666667,916.666667 L41.6666667,83.3333333 Z" id="Shape"></path></g> <g id="Group" fill="#000000" fill-rule="nonzero"><path d="M54.1666667,1000 L941.666667,1000 C970.833333,1000 995.833333,975 995.833333,945.833333 L995.833333,58.3333333 C1000,25 975,0 945.833333,0 L54.1666667,0 C25,0 0,25 0,54.1666667 L0,941.666667 C0,975 25,1000 54.1666667,1000 Z M41.6666667,83.3333333 C41.6666667,58.3333333 62.5,41.6666667 83.3333333,41.6666667 L916.666667,41.6666667 C941.666667,41.6666667 958.333333,62.5 958.333333,83.3333333 L958.333333,916.666667 C958.333333,941.666667 937.5,958.333333 916.666667,958.333333 L83.3333333,958.333333 C58.3333333,958.333333 41.6666667,937.5 41.6666667,916.666667 L41.6666667,83.3333333 Z" id="Shape"></path></g> <g id="qr-placeholder-index" transform="translate(0.000000, 9.000000)" fill="none"><path d="M112,367.333333 L368.333333,367.333333 L368.333333,111 L112,111 L112,367.333333 Z M154.722222,153.722222 L325.611111,153.722222 L325.611111,324.611111 L154.722222,324.611111 L154.722222,153.722222 Z M197.444444,196.444444 L282.888889,196.444444 L282.888889,281.888889 L197.444444,281.888889 L197.444444,196.444444 Z M624.666667,367.333333 L881,367.333333 L881,111 L624.666667,111 L624.666667,367.333333 Z M667.388889,153.722222 L838.277778,153.722222 L838.277778,324.611111 L667.388889,324.611111 L667.388889,153.722222 Z M710.111111,196.444444 L795.555556,196.444444 L795.555556,281.888889 L710.111111,281.888889 L710.111111,196.444444 Z M112,880 L368.333333,880 L368.333333,623.666667 L112,623.666667 L112,880 Z M154.722222,666.388889 L325.611111,666.388889 L325.611111,837.277778 L154.722222,837.277778 L154.722222,666.388889 Z M197.444444,709.111111 L282.888889,709.111111 L282.888889,794.555556 L197.444444,794.555556 L197.444444,709.111111 Z M838.277778,794.555556 L881,794.555556 L881,880 L795.555556,880 L795.555556,751.833333 L838.277778,751.833333 L838.277778,794.555556 Z M838.277778,666.388889 L881,666.388889 L881,709.111111 L838.277778,709.111111 L838.277778,666.388889 Z M838.277778,623.666667 L838.277778,666.388889 L795.555556,666.388889 L795.555556,623.666667 L838.277778,623.666667 Z M411.055556,709.111111 L453.777778,709.111111 L453.777778,880 L411.055556,880 L411.055556,709.111111 Z M240.166667,410.055556 L240.166667,495.5 L154.722222,495.5 L154.722222,452.777778 L112,452.777778 L112,410.055556 L240.166667,410.055556 Z M411.055556,281.888889 L453.777778,281.888889 L453.777778,324.611111 L411.055556,324.611111 L411.055556,281.888889 Z M539.222222,153.722222 L539.222222,239.166667 L496.5,239.166667 L496.5,111 L581.944444,111 L581.944444,153.722222 L539.222222,153.722222 Z M411.055556,153.722222 L453.777778,153.722222 L453.777778,196.444444 L411.055556,196.444444 L411.055556,153.722222 Z M838.277778,495.5 L881,495.5 L881,580.944444 L795.555556,580.944444 L795.555556,538.222222 L838.277778,538.222222 L838.277778,495.5 Z M795.555556,410.055556 L795.555556,452.777778 L710.111111,452.777778 L710.111111,538.222222 L624.666667,538.222222 L624.666667,495.5 L667.388889,495.5 L667.388889,410.055556 L795.555556,410.055556 Z M496.5,580.944444 L453.777778,580.944444 L453.777778,538.222222 L411.055556,538.222222 L411.055556,495.5 L496.5,495.5 L496.5,580.944444 Z M752.833333,666.388889 L795.555556,666.388889 L795.555556,709.111111 L752.833333,709.111111 L752.833333,666.388889 Z M838.277778,452.777778 L838.277778,495.5 L795.555556,495.5 L795.555556,452.777778 L838.277778,452.777778 Z M453.777778,580.944444 L453.777778,623.666667 L411.055556,623.666667 L411.055556,580.944444 L453.777778,580.944444 Z M710.111111,794.555556 L752.833333,794.555556 L752.833333,880 L667.388889,880 L667.388889,794.555556 L710.111111,794.555556 Z M581.944444,794.555556 L624.666667,794.555556 L624.666667,837.277778 L581.944444,837.277778 L581.944444,880 L496.5,880 L496.5,837.277778 L539.222222,837.277778 L539.222222,794.555556 L581.944444,794.555556 Z M581.944444,751.833333 L581.944444,709.111111 L667.388889,709.111111 L667.388889,751.833333 L581.944444,751.833333 Z M581.944444,538.222222 L624.666667,538.222222 L624.666667,666.388889 L581.944444,666.388889 L581.944444,709.111111 L539.222222,709.111111 L539.222222,751.833333 L496.5,751.833333 L496.5,666.388889 L453.777778,666.388889 L453.777778,623.666667 L581.944444,623.666667 L581.944444,580.944444 L539.222222,580.944444 L539.222222,538.222222 L581.944444,538.222222 Z M197.444444,538.222222 L197.444444,580.944444 L154.722222,580.944444 L154.722222,538.222222 L197.444444,538.222222 Z M710.111111,709.111111 L667.388889,709.111111 L667.388889,666.388889 L710.111111,666.388889 L710.111111,709.111111 Z M752.833333,623.666667 L667.388889,623.666667 L667.388889,580.944444 L752.833333,580.944444 L752.833333,623.666667 Z M325.611111,410.055556 L368.333333,410.055556 L368.333333,452.777778 L325.611111,452.777778 L325.611111,495.5 L368.333333,495.5 L368.333333,580.944444 L325.611111,580.944444 L325.611111,538.222222 L282.888889,538.222222 L282.888889,580.944444 L240.166667,580.944444 L240.166667,495.5 L282.888889,495.5 L282.888889,410.055556 L325.611111,410.055556 Z M453.777778,410.055556 L453.777778,324.611111 L581.944444,324.611111 L581.944444,452.777778 L496.5,452.777778 L496.5,410.055556 L539.222222,410.055556 L539.222222,367.333333 L496.5,367.333333 L496.5,410.055556 L453.777778,410.055556 Z M453.777778,239.166667 L496.5,239.166667 L496.5,281.888889 L453.777778,281.888889 L453.777778,239.166667 Z M411.055556,410.055556 L453.777778,410.055556 L453.777778,452.777778 L411.055556,452.777778 L411.055556,410.055556 Z M539.222222,281.888889 L539.222222,239.166667 L581.944444,239.166667 L581.944444,281.888889 L539.222222,281.888889 Z" id="Shape" fill="#96949B" fill-rule="nonzero"></path> <polygon id="Path" points="0 0 992 0 992 992 0 992" fill="none"></polygon></g> <text id="SCAN-ME" fill="#000000" fill-rule="nonzero" font-family="ArialMT, Arial" font-size="120" font-weight="normal"><tspan x="226.5" y="1150.32051">SCAN ME</tspan></text></g></g></svg>