<svg width="40" height="40" viewBox="0 0 1000 1350" version="1.1" xmlns="http://www.w3.org/2000/svg" xmlns:xlink="http://www.w3.org/1999/xlink"><g stroke="none" stroke-width="1" fill="none" fill-rule="evenodd"><g fill="none"><rect id="Rectangle" fill="#FFFFFF" fill-rule="nonzero" x="38.5" y="38.5" width="966.57" height="966.57"></rect> <g id="Group" fill="#000000" fill-rule="nonzero"><path d="M0,51.2517 L0,992.8614 C0,1021.293 23.1942,1044.1131 51.2517,1044.1131 L993.2355,1044.1131 C1021.6671,1044.1131 1044.4872,1020.9189 1044.4872,992.8614 L1044.4872,51.2517 C1044.1131,22.8201 1021.293,0 992.8614,0 L51.6258,0 C23.1942,0 0.3741,22.8201 0,51.2517 Z M39.6546,66.9639 C39.6546,51.6258 51.9999,39.2805 67.338,39.2805 L977.1492,39.2805 C992.4873,39.2805 1004.8326,51.6258 1004.8326,66.9639 L1004.8326,976.7751 C1004.8326,992.1132 992.4873,1004.4585 977.1492,1004.4585 L67.338,1004.4585 C51.9999,1004.4585 39.6546,992.1132 39.6546,976.7751 L39.6546,66.9639 Z" id="Shape"></path> <path d="M134.676,1076.6598 C60.6042,1076.6598 0.3741,1136.8899 0.746466678,1215.0768 L0.746466678,1215.0768 C0.746466678,1289.1486 60.9783,1349.3787 135.0501,1349.3787 L909.8112,1349.3787 C983.883,1349.3787 1044.1131,1289.1486 1044.1131,1215.0768 L1044.1131,1215.0768 C1044.1131,1140.6309 983.883,1080.4008 909.8112,1076.6598 L134.676,1076.6598" id="Path"></path></g> <g id="Group" fill="#000000" fill-rule="nonzero"><path d="M0,51.2517 L0,992.8614 C0,1021.293 23.1942,1044.1131 51.2517,1044.1131 L993.2355,1044.1131 C1021.6671,1044.1131 1044.4872,1020.9189 1044.4872,992.8614 L1044.4872,51.2517 C1044.1131,22.8201 1021.293,0 992.8614,0 L51.6258,0 C23.1942,0 0.3741,22.8201 0,51.2517 Z M39.6546,66.9639 C39.6546,51.6258 51.9999,39.2805 67.338,39.2805 L977.1492,39.2805 C992.4873,39.2805 1004.8326,51.6258 1004.8326,66.9639 L1004.8326,976.7751 C1004.8326,992.1132 992.4873,1004.4585 977.1492,1004.4585 L67.338,1004.4585 C51.9999,1004.4585 39.6546,992.1132 39.6546,976.7751 L39.6546,66.9639 Z" id="Shape"></path> <path d="M134.676,1076.6598 C60.6042,1076.6598 0.3741,1136.8899 0.746466678,1215.0768 L0.746466678,1215.0768 C0.746466678,1289.1486 60.9783,1349.3787 135.0501,1349.3787 L909.8112,1349.3787 C983.883,1349.3787 1044.1131,1289.1486 1044.1131,1215.0768 L1044.1131,1215.0768 C1044.1131,1140.6309 983.883,1080.4008 909.8112,1076.6598 L134.676,1076.6598" id="Path"></path></g> <g id="qr-placeholder-index" transform="translate(38.000000, 38.000000)" fill="none"><path d="M108,359.666667 L357.666667,359.666667 L357.666667,110 L108,110 L108,359.666667 Z M149.611111,151.611111 L316.055556,151.611111 L316.055556,318.055556 L149.611111,318.055556 L149.611111,151.611111 Z M191.222222,193.222222 L274.444444,193.222222 L274.444444,276.444444 L191.222222,276.444444 L191.222222,193.222222 Z M607.333333,359.666667 L857,359.666667 L857,110 L607.333333,110 L607.333333,359.666667 Z M648.944444,151.611111 L815.388889,151.611111 L815.388889,318.055556 L648.944444,318.055556 L648.944444,151.611111 Z M690.555556,193.222222 L773.777778,193.222222 L773.777778,276.444444 L690.555556,276.444444 L690.555556,193.222222 Z M108,859 L357.666667,859 L357.666667,609.333333 L108,609.333333 L108,859 Z M149.611111,650.944444 L316.055556,650.944444 L316.055556,817.388889 L149.611111,817.388889 L149.611111,650.944444 Z M191.222222,692.555556 L274.444444,692.555556 L274.444444,775.777778 L191.222222,775.777778 L191.222222,692.555556 Z M815.388889,775.777778 L857,775.777778 L857,859 L773.777778,859 L773.777778,734.166667 L815.388889,734.166667 L815.388889,775.777778 Z M815.388889,650.944444 L857,650.944444 L857,692.555556 L815.388889,692.555556 L815.388889,650.944444 Z M815.388889,609.333333 L815.388889,650.944444 L773.777778,650.944444 L773.777778,609.333333 L815.388889,609.333333 Z M399.277778,692.555556 L440.888889,692.555556 L440.888889,859 L399.277778,859 L399.277778,692.555556 Z M232.833333,401.277778 L232.833333,484.5 L149.611111,484.5 L149.611111,442.888889 L108,442.888889 L108,401.277778 L232.833333,401.277778 Z M399.277778,276.444444 L440.888889,276.444444 L440.888889,318.055556 L399.277778,318.055556 L399.277778,276.444444 Z M524.111111,151.611111 L524.111111,234.833333 L482.5,234.833333 L482.5,110 L565.722222,110 L565.722222,151.611111 L524.111111,151.611111 Z M399.277778,151.611111 L440.888889,151.611111 L440.888889,193.222222 L399.277778,193.222222 L399.277778,151.611111 Z M815.388889,484.5 L857,484.5 L857,567.722222 L773.777778,567.722222 L773.777778,526.111111 L815.388889,526.111111 L815.388889,484.5 Z M773.777778,401.277778 L773.777778,442.888889 L690.555556,442.888889 L690.555556,526.111111 L607.333333,526.111111 L607.333333,484.5 L648.944444,484.5 L648.944444,401.277778 L773.777778,401.277778 Z M482.5,567.722222 L440.888889,567.722222 L440.888889,526.111111 L399.277778,526.111111 L399.277778,484.5 L482.5,484.5 L482.5,567.722222 Z M732.166667,650.944444 L773.777778,650.944444 L773.777778,692.555556 L732.166667,692.555556 L732.166667,650.944444 Z M815.388889,442.888889 L815.388889,484.5 L773.777778,484.5 L773.777778,442.888889 L815.388889,442.888889 Z M440.888889,567.722222 L440.888889,609.333333 L399.277778,609.333333 L399.277778,567.722222 L440.888889,567.722222 Z M690.555556,775.777778 L732.166667,775.777778 L732.166667,859 L648.944444,859 L648.944444,775.777778 L690.555556,775.777778 Z M565.722222,775.777778 L607.333333,775.777778 L607.333333,817.388889 L565.722222,817.388889 L565.722222,859 L482.5,859 L482.5,817.388889 L524.111111,817.388889 L524.111111,775.777778 L565.722222,775.777778 Z M565.722222,734.166667 L565.722222,692.555556 L648.944444,692.555556 L648.944444,734.166667 L565.722222,734.166667 Z M565.722222,526.111111 L607.333333,526.111111 L607.333333,650.944444 L565.722222,650.944444 L565.722222,692.555556 L524.111111,692.555556 L524.111111,734.166667 L482.5,734.166667 L482.5,650.944444 L440.888889,650.944444 L440.888889,609.333333 L565.722222,609.333333 L565.722222,567.722222 L524.111111,567.722222 L524.111111,526.111111 L565.722222,526.111111 Z M191.222222,526.111111 L191.222222,567.722222 L149.611111,567.722222 L149.611111,526.111111 L191.222222,526.111111 Z M690.555556,692.555556 L648.944444,692.555556 L648.944444,650.944444 L690.555556,650.944444 L690.555556,692.555556 Z M732.166667,609.333333 L648.944444,609.333333 L648.944444,567.722222 L732.166667,567.722222 L732.166667,609.333333 Z M316.055556,401.277778 L357.666667,401.277778 L357.666667,442.888889 L316.055556,442.888889 L316.055556,484.5 L357.666667,484.5 L357.666667,567.722222 L316.055556,567.722222 L316.055556,526.111111 L274.444444,526.111111 L274.444444,567.722222 L232.833333,567.722222 L232.833333,484.5 L274.444444,484.5 L274.444444,401.277778 L316.055556,401.277778 Z M440.888889,401.277778 L440.888889,318.055556 L565.722222,318.055556 L565.722222,442.888889 L482.5,442.888889 L482.5,401.277778 L524.111111,401.277778 L524.111111,359.666667 L482.5,359.666667 L482.5,401.277778 L440.888889,401.277778 Z M440.888889,234.833333 L482.5,234.833333 L482.5,276.444444 L440.888889,276.444444 L440.888889,234.833333 Z M399.277778,401.277778 L440.888889,401.277778 L440.888889,442.888889 L399.277778,442.888889 L399.277778,401.277778 Z M524.111111,276.444444 L524.111111,234.833333 L565.722222,234.833333 L565.722222,276.444444 L524.111111,276.444444 Z" id="Shape" fill="#96949B" fill-rule="nonzero"></path> <polygon id="Path" points="0 0 967 0 967 967 0 967" fill="none"></polygon></g> <text id="SCAN-ME" fill="#FFFFFF" fill-rule="nonzero" font-family="ArialMT, Arial" font-size="130" font-weight="normal"><tspan x="225.5" y="1258.345" fill="#FFFFFF">SCAN ME</tspan></text></g></g></svg>