<svg width="40" height="40" viewBox="0 0 1000 1190" version="1.1" xmlns="http://www.w3.org/2000/svg" xmlns:xlink="http://www.w3.org/1999/xlink"><g stroke="none" stroke-width="1" fill="none" fill-rule="evenodd"><g fill="none"><rect id="Rectangle" fill="#FFFFFF" fill-rule="nonzero" x="41.6666667" y="229.512821" width="925.833333" height="925.833333"></rect> <g id="Group" transform="translate(0.000000, 187.846154)" fill="#000000" fill-rule="nonzero"><path d="M945.833333,0 L54.1666667,0 C25,0 0,25 0,54.1666667 L0,941.666667 C0,975 25,1000 54.1666667,1000 L941.666667,1000 C970.833333,1000 995.833333,975 995.833333,945.833333 L995.833333,58.3333333 C1000,25 975,0 945.833333,0 Z M958.333333,916.666667 C958.333333,941.666667 937.5,958.333333 916.666667,958.333333 L83.3333333,958.333333 C58.3333333,958.333333 41.6666667,937.5 41.6666667,916.666667 L41.6666667,83.3333333 C41.6666667,58.3333333 62.5,41.6666667 83.3333333,41.6666667 L916.666667,41.6666667 C941.666667,41.6666667 958.333333,62.5 958.333333,83.3333333 L958.333333,916.666667 Z" id="Shape"></path></g> <g id="Group" transform="translate(0.000000, 187.846154)" fill="#000000" fill-rule="nonzero"><path d="M945.833333,0 L54.1666667,0 C25,0 0,25 0,54.1666667 L0,941.666667 C0,975 25,1000 54.1666667,1000 L941.666667,1000 C970.833333,1000 995.833333,975 995.833333,945.833333 L995.833333,58.3333333 C1000,25 975,0 945.833333,0 Z M958.333333,916.666667 C958.333333,941.666667 937.5,958.333333 916.666667,958.333333 L83.3333333,958.333333 C58.3333333,958.333333 41.6666667,937.5 41.6666667,916.666667 L41.6666667,83.3333333 C41.6666667,58.3333333 62.5,41.6666667 83.3333333,41.6666667 L916.666667,41.6666667 C941.666667,41.6666667 958.333333,62.5 958.333333,83.3333333 L958.333333,916.666667 Z" id="Shape"></path></g> <g id="qr-placeholder-index" transform="translate(9.000000, 196.000000)" fill="none"><path d="M111,368.333333 L367.333333,368.333333 L367.333333,112 L111,112 L111,368.333333 Z M153.722222,154.722222 L324.611111,154.722222 L324.611111,325.611111 L153.722222,325.611111 L153.722222,154.722222 Z M196.444444,197.444444 L281.888889,197.444444 L281.888889,282.888889 L196.444444,282.888889 L196.444444,197.444444 Z M623.666667,368.333333 L880,368.333333 L880,112 L623.666667,112 L623.666667,368.333333 Z M666.388889,154.722222 L837.277778,154.722222 L837.277778,325.611111 L666.388889,325.611111 L666.388889,154.722222 Z M709.111111,197.444444 L794.555556,197.444444 L794.555556,282.888889 L709.111111,282.888889 L709.111111,197.444444 Z M111,881 L367.333333,881 L367.333333,624.666667 L111,624.666667 L111,881 Z M153.722222,667.388889 L324.611111,667.388889 L324.611111,838.277778 L153.722222,838.277778 L153.722222,667.388889 Z M196.444444,710.111111 L281.888889,710.111111 L281.888889,795.555556 L196.444444,795.555556 L196.444444,710.111111 Z M837.277778,795.555556 L880,795.555556 L880,881 L794.555556,881 L794.555556,752.833333 L837.277778,752.833333 L837.277778,795.555556 Z M837.277778,667.388889 L880,667.388889 L880,710.111111 L837.277778,710.111111 L837.277778,667.388889 Z M837.277778,624.666667 L837.277778,667.388889 L794.555556,667.388889 L794.555556,624.666667 L837.277778,624.666667 Z M410.055556,710.111111 L452.777778,710.111111 L452.777778,881 L410.055556,881 L410.055556,710.111111 Z M239.166667,411.055556 L239.166667,496.5 L153.722222,496.5 L153.722222,453.777778 L111,453.777778 L111,411.055556 L239.166667,411.055556 Z M410.055556,282.888889 L452.777778,282.888889 L452.777778,325.611111 L410.055556,325.611111 L410.055556,282.888889 Z M538.222222,154.722222 L538.222222,240.166667 L495.5,240.166667 L495.5,112 L580.944444,112 L580.944444,154.722222 L538.222222,154.722222 Z M410.055556,154.722222 L452.777778,154.722222 L452.777778,197.444444 L410.055556,197.444444 L410.055556,154.722222 Z M837.277778,496.5 L880,496.5 L880,581.944444 L794.555556,581.944444 L794.555556,539.222222 L837.277778,539.222222 L837.277778,496.5 Z M794.555556,411.055556 L794.555556,453.777778 L709.111111,453.777778 L709.111111,539.222222 L623.666667,539.222222 L623.666667,496.5 L666.388889,496.5 L666.388889,411.055556 L794.555556,411.055556 Z M495.5,581.944444 L452.777778,581.944444 L452.777778,539.222222 L410.055556,539.222222 L410.055556,496.5 L495.5,496.5 L495.5,581.944444 Z M751.833333,667.388889 L794.555556,667.388889 L794.555556,710.111111 L751.833333,710.111111 L751.833333,667.388889 Z M837.277778,453.777778 L837.277778,496.5 L794.555556,496.5 L794.555556,453.777778 L837.277778,453.777778 Z M452.777778,581.944444 L452.777778,624.666667 L410.055556,624.666667 L410.055556,581.944444 L452.777778,581.944444 Z M709.111111,795.555556 L751.833333,795.555556 L751.833333,881 L666.388889,881 L666.388889,795.555556 L709.111111,795.555556 Z M580.944444,795.555556 L623.666667,795.555556 L623.666667,838.277778 L580.944444,838.277778 L580.944444,881 L495.5,881 L495.5,838.277778 L538.222222,838.277778 L538.222222,795.555556 L580.944444,795.555556 Z M580.944444,752.833333 L580.944444,710.111111 L666.388889,710.111111 L666.388889,752.833333 L580.944444,752.833333 Z M580.944444,539.222222 L623.666667,539.222222 L623.666667,667.388889 L580.944444,667.388889 L580.944444,710.111111 L538.222222,710.111111 L538.222222,752.833333 L495.5,752.833333 L495.5,667.388889 L452.777778,667.388889 L452.777778,624.666667 L580.944444,624.666667 L580.944444,581.944444 L538.222222,581.944444 L538.222222,539.222222 L580.944444,539.222222 Z M196.444444,539.222222 L196.444444,581.944444 L153.722222,581.944444 L153.722222,539.222222 L196.444444,539.222222 Z M709.111111,710.111111 L666.388889,710.111111 L666.388889,667.388889 L709.111111,667.388889 L709.111111,710.111111 Z M751.833333,624.666667 L666.388889,624.666667 L666.388889,581.944444 L751.833333,581.944444 L751.833333,624.666667 Z M324.611111,411.055556 L367.333333,411.055556 L367.333333,453.777778 L324.611111,453.777778 L324.611111,496.5 L367.333333,496.5 L367.333333,581.944444 L324.611111,581.944444 L324.611111,539.222222 L281.888889,539.222222 L281.888889,581.944444 L239.166667,581.944444 L239.166667,496.5 L281.888889,496.5 L281.888889,411.055556 L324.611111,411.055556 Z M452.777778,411.055556 L452.777778,325.611111 L580.944444,325.611111 L580.944444,453.777778 L495.5,453.777778 L495.5,411.055556 L538.222222,411.055556 L538.222222,368.333333 L495.5,368.333333 L495.5,411.055556 L452.777778,411.055556 Z M452.777778,240.166667 L495.5,240.166667 L495.5,282.888889 L452.777778,282.888889 L452.777778,240.166667 Z M410.055556,411.055556 L452.777778,411.055556 L452.777778,453.777778 L410.055556,453.777778 L410.055556,411.055556 Z M538.222222,282.888889 L538.222222,240.166667 L580.944444,240.166667 L580.944444,282.888889 L538.222222,282.888889 Z" id="Shape" fill="#96949B" fill-rule="nonzero"></path> <polygon id="Path" points="0 0 992 0 992 992 0 992" fill="none"></polygon></g> <text id="SCAN-ME" fill="#000000" fill-rule="nonzero" font-family="ArialMT, Arial" font-size="120" font-weight="normal"><tspan x="226.5" y="109">SCAN ME</tspan></text></g></g></svg>