<svg width="40" height="40" viewBox="0 0 1000 1250" version="1.1" xmlns="http://www.w3.org/2000/svg" xmlns:xlink="http://www.w3.org/1999/xlink"><g stroke="none" stroke-width="1" fill="none" fill-rule="evenodd"><g fill="none"><rect id="Rectangle" fill="#FFFFFF" fill-rule="nonzero" x="41.6666667" y="41.6666667" width="925.833333" height="925.833333"></rect> <g id="Group" fill="#000000" fill-rule="nonzero"><path d="M54.1666667,1000 L941.666667,1000 C970.833333,1000 995.833333,975 995.833333,945.833333 L995.833333,58.3333333 C1000,25 975,0 945.833333,0 L54.1666667,0 C25,0 0,25 0,54.1666667 L0,941.666667 C0,975 25,1000 54.1666667,1000 Z M41.6666667,83.3333333 C41.6666667,58.3333333 62.5,41.6666667 83.3333333,41.6666667 L916.666667,41.6666667 C941.666667,41.6666667 958.333333,62.5 958.333333,83.3333333 L958.333333,916.666667 C958.333333,941.666667 937.5,958.333333 916.666667,958.333333 L83.3333333,958.333333 C58.3333333,958.333333 41.6666667,937.5 41.6666667,916.666667 L41.6666667,83.3333333 Z" id="Shape"></path> <path d="M41.6666667,1250 L958.333333,1250 C979.166667,1250 1000,1233.33333 1000,1208.33333 L1000,1083.33333 C1000,1062.5 983.333333,1041.66667 958.333333,1041.66667 L541.666667,1041.66667 L500,1000 L458.333333,1041.66667 L41.6666667,1041.66667 C20.8333333,1041.66667 0,1058.33333 0,1083.33333 L0,1208.33333 C0,1233.33333 16.6666667,1250 41.6666667,1250 Z" id="Path"></path></g> <g id="Group" fill="#000000" fill-rule="nonzero"><path d="M54.1666667,1000 L941.666667,1000 C970.833333,1000 995.833333,975 995.833333,945.833333 L995.833333,58.3333333 C1000,25 975,0 945.833333,0 L54.1666667,0 C25,0 0,25 0,54.1666667 L0,941.666667 C0,975 25,1000 54.1666667,1000 Z M41.6666667,83.3333333 C41.6666667,58.3333333 62.5,41.6666667 83.3333333,41.6666667 L916.666667,41.6666667 C941.666667,41.6666667 958.333333,62.5 958.333333,83.3333333 L958.333333,916.666667 C958.333333,941.666667 937.5,958.333333 916.666667,958.333333 L83.3333333,958.333333 C58.3333333,958.333333 41.6666667,937.5 41.6666667,916.666667 L41.6666667,83.3333333 Z" id="Shape"></path> <path d="M41.6666667,1250 L958.333333,1250 C979.166667,1250 1000,1233.33333 1000,1208.33333 L1000,1083.33333 C1000,1062.5 983.333333,1041.66667 958.333333,1041.66667 L541.666667,1041.66667 L500,1000 L458.333333,1041.66667 L41.6666667,1041.66667 C20.8333333,1041.66667 0,1058.33333 0,1083.33333 L0,1208.33333 C0,1233.33333 16.6666667,1250 41.6666667,1250 Z" id="Path"></path></g> <g id="qr-placeholder-index" transform="translate(42.000000, 54.000000)" fill="none"><path d="M101,335 L334,335 L334,102 L101,102 L101,335 Z M139.833333,140.833333 L295.166667,140.833333 L295.166667,296.166667 L139.833333,296.166667 L139.833333,140.833333 Z M178.666667,179.666667 L256.333333,179.666667 L256.333333,257.333333 L178.666667,257.333333 L178.666667,179.666667 Z M567,335 L800,335 L800,102 L567,102 L567,335 Z M605.833333,140.833333 L761.166667,140.833333 L761.166667,296.166667 L605.833333,296.166667 L605.833333,140.833333 Z M644.666667,179.666667 L722.333333,179.666667 L722.333333,257.333333 L644.666667,257.333333 L644.666667,179.666667 Z M101,801 L334,801 L334,568 L101,568 L101,801 Z M139.833333,606.833333 L295.166667,606.833333 L295.166667,762.166667 L139.833333,762.166667 L139.833333,606.833333 Z M178.666667,645.666667 L256.333333,645.666667 L256.333333,723.333333 L178.666667,723.333333 L178.666667,645.666667 Z M761.166667,723.333333 L800,723.333333 L800,801 L722.333333,801 L722.333333,684.5 L761.166667,684.5 L761.166667,723.333333 Z M761.166667,606.833333 L800,606.833333 L800,645.666667 L761.166667,645.666667 L761.166667,606.833333 Z M761.166667,568 L761.166667,606.833333 L722.333333,606.833333 L722.333333,568 L761.166667,568 Z M372.833333,645.666667 L411.666667,645.666667 L411.666667,801 L372.833333,801 L372.833333,645.666667 Z M217.5,373.833333 L217.5,451.5 L139.833333,451.5 L139.833333,412.666667 L101,412.666667 L101,373.833333 L217.5,373.833333 Z M372.833333,257.333333 L411.666667,257.333333 L411.666667,296.166667 L372.833333,296.166667 L372.833333,257.333333 Z M489.333333,140.833333 L489.333333,218.5 L450.5,218.5 L450.5,102 L528.166667,102 L528.166667,140.833333 L489.333333,140.833333 Z M372.833333,140.833333 L411.666667,140.833333 L411.666667,179.666667 L372.833333,179.666667 L372.833333,140.833333 Z M761.166667,451.5 L800,451.5 L800,529.166667 L722.333333,529.166667 L722.333333,490.333333 L761.166667,490.333333 L761.166667,451.5 Z M722.333333,373.833333 L722.333333,412.666667 L644.666667,412.666667 L644.666667,490.333333 L567,490.333333 L567,451.5 L605.833333,451.5 L605.833333,373.833333 L722.333333,373.833333 Z M450.5,529.166667 L411.666667,529.166667 L411.666667,490.333333 L372.833333,490.333333 L372.833333,451.5 L450.5,451.5 L450.5,529.166667 Z M683.5,606.833333 L722.333333,606.833333 L722.333333,645.666667 L683.5,645.666667 L683.5,606.833333 Z M761.166667,412.666667 L761.166667,451.5 L722.333333,451.5 L722.333333,412.666667 L761.166667,412.666667 Z M411.666667,529.166667 L411.666667,568 L372.833333,568 L372.833333,529.166667 L411.666667,529.166667 Z M644.666667,723.333333 L683.5,723.333333 L683.5,801 L605.833333,801 L605.833333,723.333333 L644.666667,723.333333 Z M528.166667,723.333333 L567,723.333333 L567,762.166667 L528.166667,762.166667 L528.166667,801 L450.5,801 L450.5,762.166667 L489.333333,762.166667 L489.333333,723.333333 L528.166667,723.333333 Z M528.166667,684.5 L528.166667,645.666667 L605.833333,645.666667 L605.833333,684.5 L528.166667,684.5 Z M528.166667,490.333333 L567,490.333333 L567,606.833333 L528.166667,606.833333 L528.166667,645.666667 L489.333333,645.666667 L489.333333,684.5 L450.5,684.5 L450.5,606.833333 L411.666667,606.833333 L411.666667,568 L528.166667,568 L528.166667,529.166667 L489.333333,529.166667 L489.333333,490.333333 L528.166667,490.333333 Z M178.666667,490.333333 L178.666667,529.166667 L139.833333,529.166667 L139.833333,490.333333 L178.666667,490.333333 Z M644.666667,645.666667 L605.833333,645.666667 L605.833333,606.833333 L644.666667,606.833333 L644.666667,645.666667 Z M683.5,568 L605.833333,568 L605.833333,529.166667 L683.5,529.166667 L683.5,568 Z M295.166667,373.833333 L334,373.833333 L334,412.666667 L295.166667,412.666667 L295.166667,451.5 L334,451.5 L334,529.166667 L295.166667,529.166667 L295.166667,490.333333 L256.333333,490.333333 L256.333333,529.166667 L217.5,529.166667 L217.5,451.5 L256.333333,451.5 L256.333333,373.833333 L295.166667,373.833333 Z M411.666667,373.833333 L411.666667,296.166667 L528.166667,296.166667 L528.166667,412.666667 L450.5,412.666667 L450.5,373.833333 L489.333333,373.833333 L489.333333,335 L450.5,335 L450.5,373.833333 L411.666667,373.833333 Z M411.666667,218.5 L450.5,218.5 L450.5,257.333333 L411.666667,257.333333 L411.666667,218.5 Z M372.833333,373.833333 L411.666667,373.833333 L411.666667,412.666667 L372.833333,412.666667 L372.833333,373.833333 Z M489.333333,257.333333 L489.333333,218.5 L528.166667,218.5 L528.166667,257.333333 L489.333333,257.333333 Z" id="Shape" fill="#96949B" fill-rule="nonzero"></path> <polygon id="Path" points="0 0 902 0 902 902 0 902" fill="none"></polygon></g> <text id="SCAN-ME" fill="#FFFFFF" fill-rule="nonzero" font-family="ArialMT, Arial" font-size="120" font-weight="normal"><tspan x="226.5" y="1191.98718" fill="#FFFFFF">SCAN ME</tspan></text></g></g></svg>