<svg width="40" height="40" viewBox="0 0 1000 1470" version="1.1" xmlns="http://www.w3.org/2000/svg" xmlns:xlink="http://www.w3.org/1999/xlink"><g stroke="none" stroke-width="1" fill="none" fill-rule="evenodd"><g fill="none"><rect id="Rectangle" fill="#FFFFFF" fill-rule="nonzero" x="43.8020833" y="201.802083" width="973.282292" height="973.282292"></rect> <g id="Group" fill="#000000" fill-rule="nonzero"><path d="M999.756271,158.589823 L750.758948,158.589823 L750.758948,125.817104 C750.758948,101.708437 731.547354,82.4968437 707.438687,82.4968437 L607.990437,82.4968437 C607.990437,36.9163958 571.074042,2.67659968e-14 525.493594,2.67659968e-14 C479.913146,2.67659968e-14 442.99675,36.9163958 442.99675,82.4968437 L343.5485,82.4968437 C319.439833,82.4968437 300.22824,101.708437 300.22824,125.817104 L300.22824,158.589823 L51.9843125,158.589823 C23.3552708,158.589823 0.376697917,181.945094 0,210.197437 L0,1412.61719 C0,1441.24623 23.3552708,1464.2248 51.6076146,1464.2248 L999.756271,1464.2248 C1028.38531,1464.2248 1051.36389,1440.86953 1051.36389,1412.61719 L1051.36389,210.197437 C1051.36389,181.568396 1028.00861,158.589823 999.756271,158.589823 Z M525.870292,44.8270521 C546.965375,44.8270521 563.916781,61.7784583 563.916781,82.8735417 C563.916781,103.968625 546.965375,120.920031 525.870292,120.920031 C504.775208,120.920031 487.823802,103.968625 487.823802,82.8735417 C487.823802,61.7784583 504.775208,44.8270521 525.870292,44.8270521 Z M1011.8106,1142.52478 C1011.8106,1157.9694 999.379573,1170.40043 983.934958,1170.40043 L67.805625,1170.40043 C52.3610104,1170.40043 39.9299792,1157.9694 39.9299792,1142.52478 L39.9299792,226.01875 C39.9299792,210.574135 52.3610104,198.143104 67.805625,198.143104 L983.934958,198.143104 C999.379573,198.143104 1011.8106,210.574135 1011.8106,226.01875 L1011.8106,1142.52478 L1011.8106,1142.52478 Z" id="Shape"></path></g> <g id="Group" fill="#000000" fill-rule="nonzero"><path d="M999.756271,158.589823 L750.758948,158.589823 L750.758948,125.817104 C750.758948,101.708437 731.547354,82.4968437 707.438687,82.4968437 L607.990437,82.4968437 C607.990437,36.9163958 571.074042,2.67659968e-14 525.493594,2.67659968e-14 C479.913146,2.67659968e-14 442.99675,36.9163958 442.99675,82.4968437 L343.5485,82.4968437 C319.439833,82.4968437 300.22824,101.708437 300.22824,125.817104 L300.22824,158.589823 L51.9843125,158.589823 C23.3552708,158.589823 0.376697917,181.945094 0,210.197437 L0,1412.61719 C0,1441.24623 23.3552708,1464.2248 51.6076146,1464.2248 L999.756271,1464.2248 C1028.38531,1464.2248 1051.36389,1440.86953 1051.36389,1412.61719 L1051.36389,210.197437 C1051.36389,181.568396 1028.00861,158.589823 999.756271,158.589823 Z M525.870292,44.8270521 C546.965375,44.8270521 563.916781,61.7784583 563.916781,82.8735417 C563.916781,103.968625 546.965375,120.920031 525.870292,120.920031 C504.775208,120.920031 487.823802,103.968625 487.823802,82.8735417 C487.823802,61.7784583 504.775208,44.8270521 525.870292,44.8270521 Z M1011.8106,1142.52478 C1011.8106,1157.9694 999.379573,1170.40043 983.934958,1170.40043 L67.805625,1170.40043 C52.3610104,1170.40043 39.9299792,1157.9694 39.9299792,1142.52478 L39.9299792,226.01875 C39.9299792,210.574135 52.3610104,198.143104 67.805625,198.143104 L983.934958,198.143104 C999.379573,198.143104 1011.8106,210.574135 1011.8106,226.01875 L1011.8106,1142.52478 L1011.8106,1142.52478 Z" id="Shape"></path></g> <g id="qr-placeholder-index" transform="translate(0.000000, 163.000000)" fill="none"><path d="M118,389.666667 L389.666667,389.666667 L389.666667,118 L118,118 L118,389.666667 Z M163.277778,163.277778 L344.388889,163.277778 L344.388889,344.388889 L163.277778,344.388889 L163.277778,163.277778 Z M208.555556,208.555556 L299.111111,208.555556 L299.111111,299.111111 L208.555556,299.111111 L208.555556,208.555556 Z M661.333333,389.666667 L933,389.666667 L933,118 L661.333333,118 L661.333333,389.666667 Z M706.611111,163.277778 L887.722222,163.277778 L887.722222,344.388889 L706.611111,344.388889 L706.611111,163.277778 Z M751.888889,208.555556 L842.444444,208.555556 L842.444444,299.111111 L751.888889,299.111111 L751.888889,208.555556 Z M118,933 L389.666667,933 L389.666667,661.333333 L118,661.333333 L118,933 Z M163.277778,706.611111 L344.388889,706.611111 L344.388889,887.722222 L163.277778,887.722222 L163.277778,706.611111 Z M208.555556,751.888889 L299.111111,751.888889 L299.111111,842.444444 L208.555556,842.444444 L208.555556,751.888889 Z M887.722222,842.444444 L933,842.444444 L933,933 L842.444444,933 L842.444444,797.166667 L887.722222,797.166667 L887.722222,842.444444 Z M887.722222,706.611111 L933,706.611111 L933,751.888889 L887.722222,751.888889 L887.722222,706.611111 Z M887.722222,661.333333 L887.722222,706.611111 L842.444444,706.611111 L842.444444,661.333333 L887.722222,661.333333 Z M434.944444,751.888889 L480.222222,751.888889 L480.222222,933 L434.944444,933 L434.944444,751.888889 Z M253.833333,434.944444 L253.833333,525.5 L163.277778,525.5 L163.277778,480.222222 L118,480.222222 L118,434.944444 L253.833333,434.944444 Z M434.944444,299.111111 L480.222222,299.111111 L480.222222,344.388889 L434.944444,344.388889 L434.944444,299.111111 Z M570.777778,163.277778 L570.777778,253.833333 L525.5,253.833333 L525.5,118 L616.055556,118 L616.055556,163.277778 L570.777778,163.277778 Z M434.944444,163.277778 L480.222222,163.277778 L480.222222,208.555556 L434.944444,208.555556 L434.944444,163.277778 Z M887.722222,525.5 L933,525.5 L933,616.055556 L842.444444,616.055556 L842.444444,570.777778 L887.722222,570.777778 L887.722222,525.5 Z M842.444444,434.944444 L842.444444,480.222222 L751.888889,480.222222 L751.888889,570.777778 L661.333333,570.777778 L661.333333,525.5 L706.611111,525.5 L706.611111,434.944444 L842.444444,434.944444 Z M525.5,616.055556 L480.222222,616.055556 L480.222222,570.777778 L434.944444,570.777778 L434.944444,525.5 L525.5,525.5 L525.5,616.055556 Z M797.166667,706.611111 L842.444444,706.611111 L842.444444,751.888889 L797.166667,751.888889 L797.166667,706.611111 Z M887.722222,480.222222 L887.722222,525.5 L842.444444,525.5 L842.444444,480.222222 L887.722222,480.222222 Z M480.222222,616.055556 L480.222222,661.333333 L434.944444,661.333333 L434.944444,616.055556 L480.222222,616.055556 Z M751.888889,842.444444 L797.166667,842.444444 L797.166667,933 L706.611111,933 L706.611111,842.444444 L751.888889,842.444444 Z M616.055556,842.444444 L661.333333,842.444444 L661.333333,887.722222 L616.055556,887.722222 L616.055556,933 L525.5,933 L525.5,887.722222 L570.777778,887.722222 L570.777778,842.444444 L616.055556,842.444444 Z M616.055556,797.166667 L616.055556,751.888889 L706.611111,751.888889 L706.611111,797.166667 L616.055556,797.166667 Z M616.055556,570.777778 L661.333333,570.777778 L661.333333,706.611111 L616.055556,706.611111 L616.055556,751.888889 L570.777778,751.888889 L570.777778,797.166667 L525.5,797.166667 L525.5,706.611111 L480.222222,706.611111 L480.222222,661.333333 L616.055556,661.333333 L616.055556,616.055556 L570.777778,616.055556 L570.777778,570.777778 L616.055556,570.777778 Z M208.555556,570.777778 L208.555556,616.055556 L163.277778,616.055556 L163.277778,570.777778 L208.555556,570.777778 Z M751.888889,751.888889 L706.611111,751.888889 L706.611111,706.611111 L751.888889,706.611111 L751.888889,751.888889 Z M797.166667,661.333333 L706.611111,661.333333 L706.611111,616.055556 L797.166667,616.055556 L797.166667,661.333333 Z M344.388889,434.944444 L389.666667,434.944444 L389.666667,480.222222 L344.388889,480.222222 L344.388889,525.5 L389.666667,525.5 L389.666667,616.055556 L344.388889,616.055556 L344.388889,570.777778 L299.111111,570.777778 L299.111111,616.055556 L253.833333,616.055556 L253.833333,525.5 L299.111111,525.5 L299.111111,434.944444 L344.388889,434.944444 Z M480.222222,434.944444 L480.222222,344.388889 L616.055556,344.388889 L616.055556,480.222222 L525.5,480.222222 L525.5,434.944444 L570.777778,434.944444 L570.777778,389.666667 L525.5,389.666667 L525.5,434.944444 L480.222222,434.944444 Z M480.222222,253.833333 L525.5,253.833333 L525.5,299.111111 L480.222222,299.111111 L480.222222,253.833333 Z M434.944444,434.944444 L480.222222,434.944444 L480.222222,480.222222 L434.944444,480.222222 L434.944444,434.944444 Z M570.777778,299.111111 L570.777778,253.833333 L616.055556,253.833333 L616.055556,299.111111 L570.777778,299.111111 Z" id="Shape" fill="#96949B" fill-rule="nonzero"></path> <polygon id="Path" points="0 0 1051 0 1051 1051 0 1051" fill="none"></polygon></g> <text id="SCAN-ME" fill="#FFFFFF" fill-rule="nonzero" font-family="ArialMT, Arial" font-size="120" font-weight="normal"><tspan x="252.125" y="1358.02624" fill="#FFFFFF">SCAN ME</tspan></text></g></g></svg>